<?xml version="1.0"?>
<svg xmlns:rdf="http://www.w3.org/1999/02/22-rdf-syntax-ns#" xmlns="http://www.w3.org/2000/svg" xmlns:cc="http://creativecommons.org/ns#" xmlns:xlink="http://www.w3.org/1999/xlink" xmlns:dc="http://purl.org/dc/elements/1.1/" xmlns:svg="http://www.w3.org/2000/svg" id="svg2" viewBox="0 0 610 610" version="1.1">
  <g id="layer3">
    <g id="g3173">
      <rect id="rect5840" stroke-linejoin="round" transform="translate(5 -397.36)" ry="1.5381" height="600" width="600" stroke="#4a0" y="402.36" x="0" stroke-width="10" fill="none"/>
      <path id="path3071" d="m45 907.36c2.7934 0.0396 5.362 0.1177 7.8892 0.11223 2.5271-0.005 5.0127-0.0945 7.64-0.38917s5.3963-0.79499 8.4902-1.623c3.0939-0.82804 6.5127-1.9838 10.44-3.5893 6.3573-2.5992 10.749-7.8732 15.53-17.422 1.2041-2.405 6.9487-7.5887 8.2139-9.9693 5.5725-10.486 14.861-13.438 20.92-22.379 1.7037-2.5141 4.0295-3.8394 5.2153-6.5749 4.6646-10.761 6.423-21.997 13.976-32.441 3.458-4.7821 16.542-6.9045 13.012 1.8918-3.8224 9.5251-10.774 26.121-11.467 28.575-2.0916 7.4081 3.5197 8.7979 6.4421 4.7488l28.188-39.055c7.3984-10.251 18.801-2.7448 12.312 5.5658-2.6563 3.4017-5.3995 6.751-7.9688 10.205-5.8279 7.8349-16.471 21.116-16.882 23.848-0.93887 6.2407-3.9999 10.85 8.7287 0.18639l36.766-30.802c6.2819-5.2628 16.93-1.8325 6.5366 13.051-2.8732 4.1143-8.8217 6.9824-12.882 10.792-7.3228 6.8714-19.059 20.052-20.629 21.693-7.0551 7.381-6.2914 11.019 1.2378 6.021l38.027-25.241c10.181-6.7581 22.281-2.1258 12.289 6.0265l-40.208 32.803c-7.1132 5.8032-39.821 33.164-17.23 40.903 9.289 3.182 14.329 2.5239 19.617 3.4162 8.0152 1.3527 20.703 3.2499 23.316 6.4925 8.0709 10.016-3.5636 11.409-11.831 10.353-4.4723-0.57089-5.8712 1.2739-10.737 1.2599-4.8657-0.0139-9.4087-1.765-15.741-1.1337-10.878 1.0845-14.858 3.4845-27.2 3.0288-13.615-0.5028-35.565-4.0953-46.678-0.68694l-23.324 10.332h-42.006z" fill="#94c207" transform="translate(5 -397.36)"/>
      <g id="layer1-9" transform="matrix(-.36056 .63385 -.73668 -.41905 542.57 97.086)" fill="#09ad1a">
        <path id="path2906" d="m253.45 471.87c5.67-13.71 10.26-8.88 12.72-23.53-4.0614-17.231-4.7395-34.947-0.80804-52.39 2.8842-17.342 0.33708-35.148-8.3743-50.534-7.7738-9.1466-14.206-43.059 6.9919-28.388 8.5463 14.479 13.191 34.113 27.701 43.463 2.9377-13.016-0.96443-30.017 0.31708-44.588 0.0291-12.631-3.3586-41.152 17.565-32.496 7.4162 17.068 2.6521 37.79 6.8845 56.162-0.72485 11.162 7.1422 17.208 9.5448 3.39 8.4869-19.076 11.237-39.832 16.572-59.816 13.744-19.782 25.419 10.371 18.344 23.275-0.31401 17.809-10.092 33.458-12.345 50.79 11.503-3.4969 18.674-24.18 25.85-35.941 4.8053-10.435 15.313-39.664 28.678-21.764 3.2504 33.073-29.827 55.012-31.117 86.926-0.57315 13.362 5.9596 33.652 22.143 20.064 16.631-7.4544 34.426-24.163 53.709-15.39 10.89 15.302-21.295 19.515-29.205 29.615-15.8 11.194-30.798 23.434-47.833 32.786-10.773 12.368-32.463 7.5927-38.212 24.288-3.8266 9.693-6.1586 21.877-11.214 33.562-11.688 5.7203-22.613 11.067-31.586 15.459-13.397-20.264-29.843-45.14-36.323-54.942z" fill="#4a0"/>
      </g>
      <g id="layer1-1" transform="matrix(.27407 -.64128 .64128 .27407 262.89 7.6706)" fill="#4a0">
        <path id="path2830" d="m-544.69 680.5c1.9514-20.134 3.3898-41.433 4.867-61.621-9.384-11.324-13.535-25.716-18.4-39.311-5.2724-17.442-1.7332-36.328-6.6579-53.625 0.3891-13.131-8.908-22.768-13.389-33.405 6.7692-18.994 27.205 1.0001 32.298 11.817 5.5272 7.5677 10.033 27.572 11.57 30.84 6.7179-14.121 8.1196-30.041 9.6931-45.381 0.13899-18.828 7.5355-36.462 9.7098-54.991 0.78296-15.903 29.053-22.347 23.08-1.4223-3.4498 23.039-5.0594 46.58-2.1577 69.839 5.3672-5.9689 6.0049-27.379 9.2403-39.146 3.1123-13.684 2.88-29.559 11.958-40.8 15.063-14.493 22.504 12.693 16.616 24.121-1.3104 19.537-4.2463 39.042-4.239 58.62 8.1147-5.9049 8.7381-24.034 12.72-34.992 4.9228-12.069 3.4753-35.91 20.727-36.358 14.976 7.14 2.7565 26.542 2.003 38.746-3.3955 16.632-7.929 33.133-10.534 49.862 8.3728-6.7364 11.022-26.056 15.507-37.954 1.1027-16.17 29.171-21.297 21.33 0.0982-2.4868 18.219-9.4548 35.46-14.91 52.893-6.7276 22.052-13.718 44.145-22.709 65.404-5.8153 14.649-17.678 23.257-20.71 39.324l-87.613 37.445z" fill="#4a0"/>
      </g>
      <g id="layer1-4" transform="matrix(.60905 0 0 .58073 614.01 207.47)" fill="#94c207">
        <path id="path3219" d="m-515.57 607.04c-1.6991-12.801-6.2921-25.487-10.076-38.058-8.0086-18.727-10.69-40.141-24.008-56.193-6.8078-13.397-17.205-24.543-23.874-38.02-11.416-16.411 14.198-25.903 20.849-8.7785 7.1195 12.832 16.117 24.989 26.265 35.407 11.273-6.4573-6.1441-21.111-6.0317-31.166-4.2407-16.435-10.829-33.197-8.5408-50.388 12.359-13.652 23.728 6.119 24.838 17.911 2.3777 15.76 10.934 29.562 13.467 45.221 5.5318-7.4522-1.8539-23.132-3.025-33.529-0.83351-15.625-0.35767-31.621-3.5379-46.886-0.20235-14.83 22.882-14.531 23.805-0.2565 2.1418 16.46 5.74 32.737 7.7277 49.199 0.45385 7.6524 0.48583 31.641 2.9295 13.113 0.11962-13.726 2.9163-27.254 3.8441-40.728-2.82-12.628 10.404-34.466 22.095-20.066 3.8928 20.21 1.559 41.156 0.11558 61.55-3.0787 13.822 0.01 28.234 4.5019 41.873 2.8022 6.769 11.289 18.959 13.234 4.7478 2.2207-12.916 6.6795-24.988 14.759-35.244 7.884-15.335 35.17-6.4488 24.066 10.376-6.4248 16.592-14.438 33.313-14.642 51.484-2.4279 15.772-16.016 26.25-22.843 40.092-4.9697 6.193-11.353 20.955-14.019 28.34h-71.9z" fill="#94c207"/>
      </g>
      <g id="layer1-3" stroke="#000" transform="matrix(-.52534 -.706 .88870 -.57895 -265.08 112.5)" fill="#94c207">
        <path id="path3143" d="m-495.01 605.24c-10.804-21.493-15.563-37.665-18.127-60.428-0.57516-10.698-9.4792-18.128-13.348-26.837-3.6621-8.6842-17.83-26.391-6.0036-32.689 10.051 1.8702 12.007 14.245 17.132 21.623 4.6119 5.2167 10.418 19.262 18.55 15.347 3.3944-3.6664-3.6129-15.227-4.9056-21.6-0.97252-9.9632-3.5011-18.034-6.4136-27.883-3.0431-13.503 6.9156-20.342 13.02-5.4675 5.6829 10.931 4.0632 17.254 10.529 27.499 4.2577 3.5817 3.8451 26.204 10.399 13.83-1.803-12.122-2.6461-25.086-6.7377-36.779-0.0904-9.6288-7.5688-19.375-1.573-28.385 13.621-5.8501 12.348 14.343 16.336 22.541 4.1084 14.526 10.063 56.987 18.099 36.973 2.6924-13.358 5.9686-26.891 6.8466-40.592-1.4705-10.067 11.711-24.765 16.234-9.6258 2.0115 10.724-0.94265 23.88-0.88553 32.854 0.0691 10.852-3.1636 23.199-3.8041 34.626-2.8912 10.111 3.3851 25.655 14.493 15.396 10.544-6.5087 9.3814-9.8374 25.174-14.999 17.142-5.6026 30.03 1.9924 12.2 9.218-9.6024 3.6977-19.776 15.432-26.272 24.538-4.9739 10.819-16.247 16.994-23.512 25.931-5.9957 7.0524-11.369 14.577-12.754 24.548-1.724 12.409-1.7058 28.837-5.0085 28.88-3.0026 3.6616-6.3467 7.7395-11.121 13.562-12.518-7.4-25.265-14.935-35.604-21.046-0.39964-7.2639-1.8749-20.962-2.9427-21.036z" fill="#94c207"/>
      </g>
      <g id="layer1-0" transform="matrix(.062246 .83722 -.96229 .054156 652.59 639.68)" fill="#250">
        <path id="path3067" d="m-386.01 601.23c2.0028-8.184 13.325-19.372 19.848-24.272 8.2039-5.3665 11.771-15.426 14.715-24.692 3.1401-9.4858 12.347-14.848 18.923-19.809 3.6926-9.0251-14.181-12.469-19.805-7.3373-8.0136 4.1194-14.391 11.61-18.957 19.61-8.2726 10.204-7.9961-14.746-7.4681-20.759 1.7627-12.88 3.2881-25.699 2.1622-38.822 3.03-14.635-16.816-20.619-15.711-3.8186-1.067 11.616-1.3038 22.008-2.9364 33.492 0.76235 8.8478-6.604 6.1104-3.997-1.9649-2.0091-12.55-1.4558-25.458-4.6006-37.932 0.54006-13.026-18.816-15.631-15.394-0.51071 0.85693 10.737 1.168 19.947 1.6682 31.033 0.41656 3.931 0.30169 21.458-2.7356 8.8454-3.0081-11.621-5.2655-23.345-8.6158-34.878-3.6922-16.483-21.166-1.4499-13.145 10.167 1.898 8.0547 2.8498 16.004 4.5017 23.917 1.9065 6.742 3.8444 24.199-7.2463 15.327-6.8259-7.2309-10.307-18.21-16.934-25.625-13.357-2.736-7.2933 14.69-3.0425 21.537 3.2526 6.2518 6.5151 13.114 10.935 18.205 5.3099 6.6476 4.9226 16.643 6.3661 25.202 1.8238 11.555 8.7524 20.984 15.002 30.081l46.467 3.0057z" fill="#250"/>
      </g>
      <g id="layer1-2" transform="matrix(-.085197 -.50495 .58692 -.13736 133.09 121.04)" fill="#250">
        <path id="path3333" d="m-486 639.79c-1.9644-14.771-19.044-20.321-27.752-31.331-10.279-13.087-25.77-19.078-38.5-28.439-9.8866-11.28-34.738-12.432-35.874-28.254 12.82-14.56 37.112-9.8808 50.781 1.0237 10.596 5.4997 29.38 16.411 35.526-0.97187 3.7956-8.6084 6.0142-18.38 1.138-27.141-4.567-10.973-8.019-23.089-11.53-34.796-4.1094-11.894-5.573-23.601-9.7193-35.548-4.2011-11.028-11.579-25.55-4.07-34.543 7.2542-8.6881 23.113 4.6154 24.294 16.346 4.2892 9.7325 7.0316 19.788 11.706 29.154 4.9185 8.9026 9.2312 19.777 14.725 28.047-3.3434-23.798-0.3578-48.813-4.6461-72.684-3.989-23.481 23.254-22.396 23.627-4.5406 3.2136 15.362 2.4956 31.68 7 46.716 5.0251 10.199-0.22682 32.68 9.9624 35.647 3.6033-13.898 8.1609-27.107 11.2-41.104 5.3592-11.697 0.2097-38.055 19.089-35.532 14.02 7.2398 2.3883 30.534 3.9684 43.977-2.7745 15.655-3.334 31.818-8.1332 46.781 5.4526 9.1619 14.684-15.128 21.207-20.467 8.2004-9.6046 10.895-22.132 18.781-30.954 20.511-6.0282 15.221 20.666 7.44 30.541-6.1234 13.384-13.124 26.515-21.295 39.073-5.7284 15.138-6.777 31.901-9.194 48.062-3.6883 13.449-5.628 27.625-9.7206 40.938-4.3713 7.088-1.6099 23.951-0.18282 31.588-41.421-6.0126-66.011-9.5821-79.828-11.588z" fill="#250"/>
      </g>
      <g id="layer1-32" transform="matrix(.67965 -.13344 -.10888 -.83297 671.59 486.28)" fill="#250">
        <path id="path3143-5" d="m-519.44 547.93c-0.90383-12.382-11.609-21.109-16.374-31.239-4.5198-10.099-21.676-30.791-7.7932-37.898 11.949 2.3136 14.523 16.656 20.75 25.266 5.5732 6.1027 12.745 22.435 22.299 18.028 3.946-4.1897-4.5975-17.666-6.2616-25.056-1.3594-11.538-7.7584-20.658-8.1791-32.345-10.68-14.906 15.212-25.192 14.02-5.8761 6.961 12.728 6.4671 19.765 14.342 31.71 5.1195 4.2064 5.1007 30.365 12.609 16.152-2.3883-14.047-3.6567-29.054-8.748-42.639-0.30719-11.138-9.3711-22.522-2.4537-32.854 16.018-6.5622 14.93 16.774 19.826 26.316 5.17 16.862 13.108 66.061 22.214 43.034 2.9127-15.41 6.5137-31.013 7.2694-46.846-1.9516-11.666 13.362-28.468 19.036-10.89 2.6064 12.434-2.5585 27.746-0.36663 37.985-1.6353 12.49-3.2666 26.784-3.7881 39.991-3.2158 11.651 4.5442 29.723 17.493 18.024 12.359-7.37 22.307-20.873 38.253-18.991 13.385-6.2356 27.538 18.159 7.8547 15.895-13.566 1.355-25.054 14.522-32.562 24.957-2.8345 6.2195-7.5592 11.072-12.628 15.649-26.008 4.124-62.105 9.9068-110.1 16.138-2.3189-13.942-4.5598-28.783-6.7087-44.511z" fill="#250"/>
      </g>
    </g>
  </g>
  <metadata>
    <rdf:RDF>
      <cc:Work>
        <dc:format>image/svg+xml</dc:format>
        <dc:type rdf:resource="http://purl.org/dc/dcmitype/StillImage"/>
        <cc:license rdf:resource="http://creativecommons.org/licenses/publicdomain/"/>
        <dc:publisher>
          <cc:Agent rdf:about="http://openclipart.org/">
            <dc:title>Openclipart</dc:title>
          </cc:Agent>
        </dc:publisher>
        <dc:title>eco green solidarity icon</dc:title>
        <dc:date>2013-09-14T14:34:47</dc:date>
        <dc:description/>
        <dc:source>http://openclipart.org/detail/183433/eco-green-solidarity-icon-by-dominiquechappard-183433</dc:source>
        <dc:creator>
          <cc:Agent>
            <dc:title>dominiquechappard</dc:title>
          </cc:Agent>
        </dc:creator>
        <dc:subject>
          <rdf:Bag>
            <rdf:li>ecology</rdf:li>
            <rdf:li>green</rdf:li>
            <rdf:li>solidarity</rdf:li>
          </rdf:Bag>
        </dc:subject>
      </cc:Work>
      <cc:License rdf:about="http://creativecommons.org/licenses/publicdomain/">
        <cc:permits rdf:resource="http://creativecommons.org/ns#Reproduction"/>
        <cc:permits rdf:resource="http://creativecommons.org/ns#Distribution"/>
        <cc:permits rdf:resource="http://creativecommons.org/ns#DerivativeWorks"/>
      </cc:License>
    </rdf:RDF>
  </metadata>
</svg>
