<?xml version="1.0" encoding="UTF-8" standalone="no"?>
<svg
   xmlns:dc="http://purl.org/dc/elements/1.1/"
   xmlns:cc="http://creativecommons.org/ns#"
   xmlns:rdf="http://www.w3.org/1999/02/22-rdf-syntax-ns#"
   xmlns:svg="http://www.w3.org/2000/svg"
   xmlns="http://www.w3.org/2000/svg"
   xmlns:sodipodi="http://sodipodi.sourceforge.net/DTD/sodipodi-0.dtd"
   xmlns:inkscape="http://www.inkscape.org/namespaces/inkscape"
   id="svg2"
   viewBox="0 0 610 610"
   version="1.1"
   sodipodi:docname="goals.svg"
   inkscape:version="1.0.1 (3bc2e813f5, 2020-09-07)">
  <defs
     id="defs12" />
  <sodipodi:namedview
     pagecolor="#ffffff"
     bordercolor="#666666"
     borderopacity="1"
     objecttolerance="10"
     gridtolerance="10"
     guidetolerance="10"
     inkscape:pageopacity="0"
     inkscape:pageshadow="2"
     inkscape:window-width="1366"
     inkscape:window-height="745"
     id="namedview10"
     showgrid="false"
     inkscape:zoom="0.94754098"
     inkscape:cx="305"
     inkscape:cy="305"
     inkscape:window-x="-8"
     inkscape:window-y="-8"
     inkscape:window-maximized="1"
     inkscape:current-layer="svg2" />
  <g
     id="layer2">
    <g
       id="g3148">
      <rect
         id="rect5840"
         stroke-linejoin="round"
         transform="translate(5 -397.36)"
         ry="1.5381"
         height="600"
         width="600"
         stroke="#4a0"
         y="402.36"
         x="0"
         stroke-width="10"
         fill="none" />
      <path
         id="path3960"
         d="m198.31 320.11c0.0808-0.0334 0.17525-0.0506 0.25719-0.0821 4.0886-1.4273 9.1604-0.46769 12.539 0.46897 9.6911 2.7438 14.835 13.89 18.557 25.992 1.2644 4.1102 3.6501 9.4732 5.992 13.809 0.41915 0.81925 0.95133 2.122 1.5059 2.387 4.4023 7.6256 9.6044 15.165 13.618 21.675 0.0008 0.003 0.006 0.0183 0.007 0.0213 0.008 0.008 0.0522 0.0403 0.0599 0.048 0.0008 0.003 0.006 0.0188 0.007 0.0213 0.27546 0.57165 0.5546 1.1329 0.85327 1.6861 9.0237 16.713 4.4465 40.621 16.268 46.892 12.077 6.4064 11.974 14.437 28.222 26.97 20.205 15.584 20.334 33.333 42.08 37.137-4.1934-0.18307-7.8384-0.74451-15.975-4.2909-18.673-8.1384-14.126-11.691-32.669-25.859-18.527-14.157-26.934-12.388-41.65-27.8-14.783-15.481-11.92-17.334-19.086-29.705-7.166-12.372-5.8941-9.9434-10.525-20.041-4.6312-10.098-4.5451-7.8704-8.8647-20.316-4.3196-12.445-5.5362-18.201-9.339-29.198-3.3274-9.6221-6.7073-12.482-6.9384-13.952-0.004-0.026-0.008-0.068-0.009-0.0932-0.0008-0.0251 0.009-0.0769 0.01-0.10112 0.0008-0.0121 0.003-0.0387 0.005-0.0506 0.6611-2.6718 2.9398-4.7088 5.0744-5.6187zm45.54-1.2878c3.4576-1.2185 7.8245 0.1009 12.318 2.4781 8.2732 4.3767 11.462 15.713 13.252 27.676 0.60803 4.0633 2.056 9.4998 3.5938 13.976-0.0904 0.53277 0.48413 1.5536 1.0156 2.4928 6.7679 9.3908 16.004 28.341 17.304 36.511 0.00081 0.007 0.006 0.0148 0.007 0.0213 0.16751 0.8381 1.4599 2.0493 3.4867 3.5824 0.51258 0.19495 1.4571 1.0722 1.4571 1.0722 6.8997 4.9141 19.458 12.306 27.683 19.716 1.2499 0.60358 2.5245 0.67037 4.3242 0.54159 4.0834 1.3676 8.1223 3.4731 12.058 6.7122 1.1548 0.52085 2.3726 0.32064 3.6896 0.8041 2.4461 0.91678 4.8698 1.8508 7.9976 4.6779 3.8837 1.5205 3.5857-1.2342 10.186-2.4173l23.167-2.3254c5.8637 3.5664 10.004 8.2706 13.688 13.369 0.56839 1.463 1.9812 3.2923 3.0867 4.4761 0.0118 0.006 0.0146 0.007 0.0264 0.0133 3.4245 5.1098 6.7492 10.379 11.132 15.081-4.9714-8.6443-8.8487-13.915-9.6066-14.911-10.775-14.039-7.7953-14.416-26.016-23.805-14.137-7.2846-25.545-18.821-35.895-32.243-9.1861-11.914-5.3504-15.836-4.5954-20.067 0.43345-2.4677 0.91225-4.455 2.7768-7.1686 3.5717-4.5545 8.9776-10.902 21.601-4.3718 17.522 9.0638 24.562 17.822 47.265 37.177 23.275 14.313 32.846 22.203 41.145 20.109 5.5457-1.6545 16.918 7.5513 20.659 9.2686 42.59 34.1 79.33 108.31 79.33 108.31v20.44l-81.687 0.58925s-24.488-24.142-41.271-38.831c-25.533-22.349-37.189-14.633-63.847-21.166-10.234-1.3183-21.23-4.9648-28.732-7.2913-8.1025-2.491-8.2101-4.5755-22.919-21.25-5.9538-6.7494-10.939-11.582-15.06-15.423-6.6401-6.1883-13.185-15.916-18.769-20.054-16.075-11.912-15.19-16.261-17.582-29.405-1.792-9.8452-3.1329-13.499-6.1184-20.359-4.1059-9.4353-3.5944-8.7214-6.4195-21.643-2.5963-11.875-1.6051-16.906-3.6054-27.856-1.8597-10.18-4.7-13.288-4.3596-14.557 0.75272-1.9394 2.5807-3.3349 4.2192-3.9299zm-53.389 27.667c1.7717-0.59978 4.0551-0.67391 7.081-0.18613 0.99151 0.15983 1.9683 0.45991 2.9446 0.8695l0.30259 0.11758c3.0785 11.297 6.5823 26.521 14.998 41.955 13.592 24.928 18.746 38.626 24.715 45.364 6.9585 7.8545 11.418 13.312 24.902 20.697-9.7931-0.86704-18.962-1.5301-23.161-4.3524-6.4484-4.3339-6.4152-9.6297-21.633-29.914-7.1576-9.5409-5.7085-7.7912-10.377-15.831-4.6683-8.0395-4.45-6.1749-9.038-16.215s-6.0534-14.769-10.096-23.642c-3.8241-8.3938-7.0845-10.169-6.92-11.362 0.00048-0.005 0.0112-0.0245 0.012-0.0292 0.003-0.0142 0.0008-0.0364 0.005-0.0506 0.01-0.0288 0.0343-0.0886 0.0482-0.11703 0.002-0.004 0.0104-0.0251 0.012-0.0292 0.002-0.0008 0.0361-0.015 0.0384-0.0159 0.002-0.00089 0.0164-0.007 0.0193-0.008 0.002-0.004 0.0102-0.0249 0.012-0.0292 0.002-0.00089 0.0355-0.0148 0.0384-0.0159 0.002-0.00089 0.0169-0.007 0.0193-0.008 0.002-0.00033 0.0133-0.005 0.0192-0.008 0.002-0.00089 0.0357-0.0147 0.0385-0.0159 0.2487-4.5032 4.3129-6.7712 5.8643-7.1106 0.0563-0.0201 0.0966-0.0447 0.15386-0.0636z"
         fill="#94c207" />
      <path
         id="path4238"
         d="m397.65 302.47c1.6438-0.68036 3.0518-1.7896 4.1513-3.4164 0.56448-0.7207 0.69602-1.1815 0.93763-2.354-0.002-0.0253-0.006-0.0672-0.009-0.0932-0.23116-1.4697-3.6111-4.3296-6.9384-13.952-3.8028-10.997-5.0194-16.753-9.339-29.198s-4.2335-10.218-8.8647-20.316-3.3594-7.67-10.525-20.041c-7.1659-12.372-4.3028-14.224-19.086-29.705-14.716-15.411-23.123-13.643-41.65-27.799-18.542-14.168-13.996-17.72-32.669-25.859-8.1366-3.5463-13.427-4.6442-17.621-4.8272 21.746 3.8038 23.521 22.089 43.726 37.673 16.248 12.532 16.145 20.563 28.222 26.97 11.821 6.2708 7.2443 30.178 16.268 46.892 0.29868 0.55317 0.57778 1.1144 0.85325 1.686 0.00081 0.003 0.006 0.0183 0.007 0.0213 0.007 0.008 0.0522 0.0403 0.0599 0.048 0.0008 0.003 0.006 0.0188 0.007 0.0213 4.0135 6.5098 9.2156 14.049 13.618 21.675 0.64655 1.2593 0.88166 1.4561 1.5059 2.387 2.3418 4.336 4.7276 9.6989 5.9919 13.809 3.7226 12.102 8.8663 23.248 18.557 25.992 4.3749 1.2386 8.553 1.769 11.904 0.7315 0.0532-0.0164 0.10102-0.0466 0.15386-0.0636 0.0537-0.0174 0.10053-0.0456 0.15385-0.0636 0.10999-0.0375 0.21899-0.0938 0.32694-0.13525 0.0819-0.0315 0.17634-0.0486 0.25719-0.0821zm-44.848 1.0014c0.88497-0.41616 1.6936-1.0167 2.429-1.8301 0.38637-0.69442 0.87583-0.80223 1.0063-1.63 0.007-0.0161 0.037-0.0504 0.0433-0.0665 0.014-0.0291 0.0383-0.0858 0.0482-0.11703 0.34047-1.269-2.4999-4.377-4.3596-14.557-2.0003-10.95-1.009-15.981-3.6054-27.856-2.825-12.921-2.3136-12.207-6.4195-21.643-2.9855-6.8605-4.3264-10.514-6.1183-20.359-2.3925-13.144-1.5078-17.493-17.582-29.405-5.584-4.1378-12.129-13.866-18.769-20.054-4.1214-3.8409-9.1063-8.6732-15.06-15.423-14.709-16.675-14.817-18.759-22.919-21.25-10.887-3.835-5.5598-1.8868-14.742-4.5338-0.002-0.006-0.007-0.0204-0.007-0.0213-3.5306-0.46187-8.0041-1.2708-13.983-2.7361-26.658-6.5337-38.313 1.1827-63.847-21.166-16.99-14.884-31.89-29.292-43.13-40.83h-75.78v21.653c18.711 30.925 51.78 93.758 64.682 96.337 3.35 6.1585 2.7198-1.0253 5.6112 3.1891 7.9793 11.274 17.591 24.663 21.61 26.792 4.0052 0.86838 3.9876 3.3095 9.1025 1.0652 24.345 3.2992 33.179 9.2997 36.076 11.657 22.704 19.354 29.703 27.927 47.224 36.991 12.623 6.5299 18.089 0.36075 21.661-4.1938 1.8646-2.7136 2.3434-4.7009 2.7768-7.1686 0.75495-4.2311 4.5907-8.153-4.5954-20.067-10.349-13.422-21.758-24.959-35.895-32.243-18.22-9.3886-15.241-9.7658-26.016-23.805-0.36472 4.1662 1.5561 1.6603 1.5255 0.17001 0.0118 0.006 0.0147 0.007 0.0264 0.0133 0.66817 0.80587 1.6386 1.9593 3.0867 4.4761 3.6846 5.0979 7.8247 9.8021 13.688 13.368l23.167-2.3254c10.367-4.8138 6.281-2.1407 10.186-2.4171 3.1277 2.8271 5.5515 3.7611 7.9976 4.6779 0.65352 0.43616 1.8557 0.54804 3.6896 0.80409 3.9357 3.2391 7.9746 5.3446 12.058 6.7122 0.59534-0.33854 2.7532 0.12128 4.3242 0.54158 8.2249 7.4103 20.784 14.802 27.683 19.716 0.72757 0.74923 1.0212 0.80314 1.4571 1.0722 2.0267 1.5332 3.3191 2.7443 3.4867 3.5824 0.002 0.006 0.006 0.0146 0.007 0.0213 1.3005 8.1697 10.536 27.12 17.304 36.511 0.52596 1.0823 0.95646 1.5631 1.0156 2.4927 1.5379 4.476 2.9858 9.9126 3.5938 13.976 1.7902 11.963 4.9793 23.299 13.252 27.676 4.7977 2.5381 9.4531 3.8646 13.01 2.1917zm53.466-27.699c2.173-1.0082 3.567-2.8939 4.901-5.3528 0.31759-0.7106 0.45187-1.2972 0.5933-1.7504 0.004-0.014 0.002-0.0364 0.005-0.0506 0.00081-0.005 0.0113-0.0245 0.012-0.0293 0.16446-1.1932-3.0959-2.9682-6.92-11.362-4.0422-8.8725-5.5076-13.602-10.096-23.642-4.588-10.04-4.3697-8.1751-9.038-16.215-4.6682-8.0395-3.2191-6.2898-10.377-15.831-15.218-20.284-15.184-25.58-21.633-29.914-4.1993-2.8223-13.368-3.4854-23.161-4.3524 13.484 7.3845 17.944 12.842 24.902 20.697 5.9689 6.7374 11.123 20.436 24.715 45.364 8.416 15.434 11.92 30.658 14.998 41.955l0.30259 0.11758c0.97633 0.4096 1.9531 0.70966 2.9446 0.86949 3.0259 0.48778 5.3093 0.41364 7.081-0.18613 0.0573-0.0189 0.0976-0.0435 0.15384-0.0636 0.21854-0.0795 0.41111-0.15978 0.61542-0.25456z"
         fill="#250" />
    </g>
  </g>
  <metadata
     id="metadata7">
    <rdf:RDF>
      <cc:Work>
        <dc:format>image/svg+xml</dc:format>
        <dc:type
           rdf:resource="http://purl.org/dc/dcmitype/StillImage" />
        <cc:license
           rdf:resource="http://creativecommons.org/licenses/publicdomain/" />
        <dc:publisher>
          <cc:Agent
             rdf:about="http://openclipart.org/">
            <dc:title>Openclipart</dc:title>
          </cc:Agent>
        </dc:publisher>
        <dc:title></dc:title>
        <dc:date>2013-09-01T21:01:56</dc:date>
        <dc:description>icon about ecology</dc:description>
        <dc:source>http://openclipart.org/detail/182825/eco-green-solidarity-icon-by-dominiquechappard-182825</dc:source>
        <dc:creator>
          <cc:Agent>
            <dc:title>dominiquechappard</dc:title>
          </cc:Agent>
        </dc:creator>
        <dc:subject>
          <rdf:Bag>
            <rdf:li>ecology</rdf:li>
            <rdf:li>green</rdf:li>
            <rdf:li>help</rdf:li>
            <rdf:li>solidarity</rdf:li>
          </rdf:Bag>
        </dc:subject>
      </cc:Work>
      <cc:License
         rdf:about="http://creativecommons.org/licenses/publicdomain/">
        <cc:permits
           rdf:resource="http://creativecommons.org/ns#Reproduction" />
        <cc:permits
           rdf:resource="http://creativecommons.org/ns#Distribution" />
        <cc:permits
           rdf:resource="http://creativecommons.org/ns#DerivativeWorks" />
      </cc:License>
    </rdf:RDF>
  </metadata>
</svg>
