<?xml version="1.0" standalone="no"?>
<!DOCTYPE svg PUBLIC "-//W3C//DTD SVG 20010904//EN"
 "http://www.w3.org/TR/2001/REC-SVG-20010904/DTD/svg10.dtd">
<svg version="1.0" xmlns="http://www.w3.org/2000/svg"
 width="830.000000pt" height="1280.000000pt" viewBox="0 0 830.000000 1280.000000"
 preserveAspectRatio="xMidYMid meet">

<g transform="translate(0.000000,1280.000000) scale(0.100000,-0.100000)"
fill="#000000" stroke="none">
<path d="M0 12415 c0 -230 4 -385 9 -385 5 0 19 12 31 28 12 15 47 55 78 90
31 35 59 68 61 75 2 6 12 20 22 30 10 11 34 51 54 90 29 56 35 75 27 92 -9 19
-5 24 26 41 20 10 42 18 49 16 7 -2 13 3 13 11 0 24 21 37 42 26 16 -9 20 -7
25 10 4 15 13 21 34 21 27 0 29 -2 23 -27 -4 -16 -22 -57 -40 -93 -18 -36 -38
-84 -46 -107 -9 -32 -18 -43 -33 -43 -20 0 -33 -16 -68 -80 -10 -19 -24 -40
-30 -45 -17 -14 -37 -52 -37 -68 0 -7 -13 -26 -29 -42 -17 -15 -41 -52 -55
-81 -21 -44 -24 -58 -15 -78 20 -43 85 -44 76 0 -3 18 3 26 30 41 31 16 35 17
46 2 19 -25 84 -46 99 -31 9 9 9 18 0 37 -20 44 -15 55 24 55 37 0 64 18 64
44 0 8 8 20 18 25 9 6 13 11 8 11 -5 0 -3 7 4 15 9 11 6 22 -18 57 -33 48 -48
88 -34 88 5 0 28 -20 51 -45 40 -44 42 -44 63 -27 45 36 58 52 63 79 4 16 11
36 16 47 8 14 7 16 -2 11 -8 -5 -10 -4 -5 3 10 17 20 15 46 -8 13 -12 26 -16
30 -11 3 6 20 7 45 1 35 -8 43 -6 62 14 13 15 18 28 13 36 -12 19 7 51 25 44
11 -4 15 1 15 17 0 19 2 21 10 9 5 -8 11 -12 14 -9 7 6 -25 70 -47 94 -30 32
-74 98 -82 123 l-7 23 28 -23 c15 -13 35 -30 43 -39 9 -10 34 -35 55 -58 22
-23 43 -41 48 -41 5 0 18 -9 30 -20 12 -11 30 -20 41 -20 11 0 21 -9 24 -20 6
-24 31 -23 47 3 9 14 6 21 -14 40 -38 34 -62 81 -48 95 9 9 6 17 -10 35 -22
23 -29 47 -14 47 4 0 21 -12 38 -27 17 -16 55 -49 84 -75 29 -27 60 -48 68
-48 8 0 12 -3 9 -7 -4 -3 -1 -13 7 -22 19 -23 27 -63 14 -78 -8 -10 -5 -13 16
-13 15 0 29 -7 32 -15 4 -8 12 -15 20 -15 8 0 14 -4 14 -10 0 -5 -4 -10 -10
-10 -23 0 -8 -19 17 -22 22 -2 28 -9 30 -30 1 -15 -4 -29 -13 -32 -8 -3 -14
-14 -14 -25 0 -10 -17 -34 -38 -53 -21 -19 -37 -39 -35 -45 2 -6 -10 -14 -26
-18 -24 -5 -31 -12 -31 -31 0 -13 -5 -24 -11 -24 -6 0 -8 -9 -4 -20 3 -11 3
-20 -2 -20 -5 0 -22 -12 -38 -28 -29 -27 -51 -52 -176 -202 -34 -41 -77 -91
-96 -110 -18 -19 -33 -38 -33 -43 0 -5 -12 -21 -27 -36 -16 -15 -46 -49 -68
-76 -87 -108 -219 -241 -284 -284 -20 -14 -42 -31 -49 -38 -21 -21 -65 -15
-123 16 -63 33 -221 91 -250 91 -19 0 -19 -16 -19 -695 0 -382 2 -695 4 -695
2 0 12 21 21 48 24 67 57 132 67 132 16 0 8 -68 -18 -156 -15 -49 -31 -109
-36 -134 -5 -25 -16 -58 -23 -75 -20 -42 -22 -1401 -3 -1389 10 6 11 5 1 -7
-8 -10 -12 -43 -12 -83 1 -65 2 -67 33 -80 17 -8 47 -30 66 -51 19 -20 55 -47
80 -60 25 -13 61 -38 80 -56 42 -39 122 -76 105 -49 -3 6 -15 10 -26 10 -10 0
-19 6 -19 14 0 8 -8 13 -17 12 -14 -1 -18 6 -18 29 1 17 4 40 9 53 6 19 4 22
-18 22 -14 0 -26 5 -26 10 0 6 -9 21 -20 33 -11 12 -18 27 -15 35 3 8 -3 16
-15 19 -12 3 -20 14 -20 25 0 15 4 18 17 13 10 -4 28 -9 41 -11 19 -4 23 -1
20 14 -5 29 54 80 80 71 19 -7 20 -6 10 22 -5 16 -7 36 -4 44 8 22 28 18 22
-3 -4 -12 1 -26 14 -37 19 -18 20 -18 20 3 0 12 6 22 13 22 22 0 78 31 84 46
3 8 12 14 21 14 21 0 4 16 -23 23 -14 3 -12 5 9 6 16 0 35 9 42 19 9 11 13 13
14 4 0 -10 8 -12 30 -7 41 9 94 -3 82 -18 -13 -16 -22 -85 -26 -192 -1 -49 -8
-115 -14 -145 -21 -100 -22 -114 -32 -280 -5 -91 -16 -241 -24 -335 -43 -497
-44 -818 -6 -1114 23 -181 72 -429 99 -503 11 -29 27 -81 37 -116 9 -34 21
-65 27 -69 6 -3 7 -1 3 5 -4 6 -13 44 -21 84 -13 69 -13 74 5 100 25 35 25 42
-1 35 -18 -5 -20 -2 -14 16 4 12 7 32 7 44 0 13 8 23 22 27 14 4 17 9 9 14 -6
4 -14 19 -18 34 -6 24 -4 27 22 30 27 3 28 5 28 55 0 40 5 57 23 76 13 13 24
37 26 52 2 15 8 30 14 34 6 3 14 20 18 36 4 17 11 35 16 41 12 16 -2 46 -18
40 -8 -3 -14 -1 -14 4 0 6 7 10 16 10 11 0 14 6 9 20 -4 11 -2 20 4 20 6 0 11
7 11 15 0 20 10 19 26 -2 12 -16 13 -16 9 5 -3 18 0 22 10 18 11 -4 15 2 15
19 0 16 -6 25 -15 25 -8 0 -15 7 -15 15 0 8 7 15 15 15 8 0 15 -5 15 -11 0 -6
5 -9 11 -7 14 5 49 95 48 123 0 16 -2 15 -10 -6 -13 -35 -59 -57 -75 -35 -6 9
-16 16 -23 16 -14 0 -15 36 -1 45 5 3 10 21 10 38 0 37 8 51 33 60 26 10 21
25 -10 30 -20 3 -15 4 15 6 52 1 62 20 37 67 -11 21 -15 40 -10 51 16 36 16
55 0 49 -8 -3 -15 -1 -15 5 0 5 7 12 15 15 19 8 19 24 0 24 -9 0 -12 6 -9 15
5 12 10 13 20 4 15 -12 18 0 14 49 -1 12 4 22 11 22 20 0 38 33 39 69 0 20 7
39 17 46 15 11 15 14 -4 30 -16 14 -19 25 -15 61 3 29 1 44 -7 44 -6 0 -11 5
-11 10 0 6 7 10 15 10 17 0 35 38 28 57 -3 7 7 17 21 23 20 7 26 16 26 40 0
18 5 29 12 27 13 -2 17 22 19 117 0 58 16 97 48 124 10 8 12 15 4 23 -7 7 -6
22 4 50 7 22 11 45 8 50 -4 5 -2 9 3 9 5 0 8 18 7 40 -1 22 2 43 7 46 4 3 6
27 2 54 -5 42 -4 49 14 59 11 6 22 26 26 45 4 19 11 36 16 38 5 2 11 30 12 63
2 40 9 66 20 79 19 21 24 56 8 56 -5 0 -10 -7 -10 -15 0 -8 -7 -15 -16 -15 -9
0 -14 6 -11 13 3 6 15 36 28 66 22 52 22 54 4 67 -18 13 -18 14 2 14 12 0 31
12 42 26 21 27 29 60 12 49 -5 -3 -19 7 -30 21 -26 33 -29 133 -5 189 8 20 14
49 12 63 -2 20 3 30 22 39 24 12 24 13 3 13 -16 0 -20 5 -16 20 3 11 10 20 15
20 6 0 6 5 -1 14 -6 7 -9 20 -6 28 4 9 -1 18 -9 21 -11 5 -16 20 -16 51 0 27
-5 48 -13 53 -22 13 -30 62 -12 69 18 7 20 35 4 51 -11 11 -20 73 -17 123 0
14 1 37 2 53 1 19 6 27 19 27 9 0 17 4 17 9 0 19 -21 22 -45 7 -35 -23 -43 0
-11 33 24 25 26 32 20 82 -5 45 -3 57 12 69 13 12 18 12 21 2 8 -22 43 -35 59
-21 22 18 17 32 -10 25 -16 -4 -30 0 -40 9 -8 8 -20 15 -27 15 -22 0 4 18 31
22 14 2 26 11 28 21 4 18 -33 56 -55 57 -21 0 -14 25 10 35 13 6 21 17 19 28
-3 17 -2 17 17 0 25 -21 27 -33 6 -33 -26 0 -17 -37 10 -42 20 -4 26 -1 31 18
3 13 10 24 16 24 21 0 2 44 -22 51 -20 5 -22 8 -9 13 10 4 25 6 35 4 12 -2 23
7 33 27 19 40 30 46 69 40 30 -6 34 -3 45 24 6 17 15 31 20 31 9 0 47 27 94
68 14 12 29 23 32 23 3 1 15 3 26 5 11 1 45 8 75 14 30 6 75 13 100 15 25 1
83 7 130 11 98 10 180 7 180 -7 0 -5 -8 -9 -18 -9 -28 0 -56 -34 -40 -47 28
-22 134 -4 152 26 8 12 -14 28 -49 37 -17 4 -34 10 -40 14 -12 9 -77 25 -89
22 -4 -2 -15 3 -24 10 -22 18 -247 14 -340 -6 -66 -15 -96 -25 -202 -74 -77
-36 -174 -114 -326 -264 -77 -76 -112 -85 -73 -20 12 20 32 48 44 62 13 14 26
35 29 47 7 22 -11 111 -25 127 -5 6 -9 19 -9 31 0 23 -49 166 -74 216 -9 18
-16 38 -16 45 0 7 -30 66 -67 131 -36 65 -86 156 -110 201 -59 114 -111 187
-175 248 -77 74 -131 112 -179 129 -80 29 -88 52 -34 105 19 19 35 40 35 46 0
6 7 17 16 25 8 7 32 38 52 68 19 31 57 79 82 106 25 28 50 57 56 66 5 8 26 28
47 43 20 16 37 36 37 46 0 9 13 33 30 51 16 19 30 38 30 43 0 15 229 238 238
232 5 -3 14 5 20 18 6 14 19 27 29 31 10 4 41 33 68 64 67 77 140 105 170 64
6 -8 22 -13 36 -11 l26 3 -20 75 c-25 97 -25 127 1 146 12 8 27 20 34 27 7 7
67 58 133 112 66 55 129 108 140 118 42 39 141 110 171 123 29 12 84 7 113
-11 32 -19 95 -198 117 -330 3 -16 9 -39 14 -50 10 -24 61 -305 90 -490 49
-323 79 -771 80 -1206 0 -113 3 -234 6 -268 6 -57 8 -61 33 -61 l26 0 -3 167
c-7 463 -23 829 -47 1043 -37 340 -54 479 -66 540 -5 30 -19 109 -29 175 -11
66 -26 149 -35 185 -8 36 -18 102 -22 148 -6 77 -4 84 17 107 39 41 75 41 160
-3 66 -34 77 -43 88 -78 8 -21 14 -58 14 -81 1 -46 28 -64 28 -19 0 25 16 43
28 32 3 -4 1 -20 -5 -36 l-11 -29 56 5 c67 7 173 -24 207 -59 11 -13 54 -48
96 -79 41 -31 81 -68 87 -83 7 -14 20 -25 31 -25 11 0 30 -13 43 -30 12 -16
27 -30 34 -30 6 0 15 -11 18 -25 3 -13 23 -37 43 -52 84 -64 308 -306 308
-333 0 -10 19 -38 43 -61 24 -24 67 -81 97 -126 30 -44 59 -84 64 -88 6 -3 11
-13 11 -21 0 -8 9 -25 20 -37 12 -12 23 -31 26 -43 3 -12 19 -28 35 -34 15 -7
31 -22 35 -34 4 -11 23 -40 43 -62 55 -63 141 -225 178 -337 18 -55 33 -107
33 -116 0 -29 -22 -41 -72 -41 -110 0 -283 -96 -431 -239 -82 -79 -175 -201
-154 -201 7 0 23 17 37 37 36 53 50 64 70 58 11 -4 24 1 32 12 7 10 26 24 41
31 15 7 26 16 23 21 -3 5 2 15 11 22 15 12 16 12 10 -3 -4 -12 -2 -18 8 -18 8
0 15 -6 15 -12 0 -7 8 -3 18 9 26 33 123 94 158 100 26 4 33 1 39 -17 4 -12 4
-24 1 -27 -3 -4 -6 1 -6 11 0 13 -4 15 -19 6 -28 -15 -126 -112 -134 -132 -10
-27 12 -22 35 7 11 14 25 24 31 22 7 -2 20 5 31 15 11 10 26 18 33 18 7 0 13
6 13 14 0 22 27 26 43 8 25 -28 29 -59 12 -85 -8 -13 -13 -26 -10 -29 9 -9 55
16 55 30 0 7 15 12 40 12 28 0 40 -4 40 -14 0 -8 -4 -16 -9 -18 -4 -1 -12 -13
-15 -25 -6 -17 -3 -23 8 -23 12 0 16 -10 16 -35 0 -28 -4 -35 -19 -35 -15 0
-21 -10 -26 -40 -8 -45 -2 -60 26 -60 11 0 19 -7 19 -16 0 -10 13 -3 38 23 21
21 55 52 76 68 55 44 106 124 106 168 0 20 5 39 11 43 6 3 34 -19 64 -51 58
-63 77 -65 73 -7 -3 31 0 37 16 37 10 0 24 -9 30 -20 23 -40 35 -46 88 -43 53
3 53 3 56 38 l3 35 57 -1 c56 0 57 0 56 -30 -1 -53 -15 -124 -25 -124 -5 0 -9
-9 -9 -20 0 -11 -6 -23 -14 -26 -8 -3 -12 -13 -9 -25 7 -26 -24 -74 -40 -61
-8 7 -16 5 -25 -4 -11 -12 -9 -16 13 -26 28 -13 32 -42 10 -72 -8 -11 -15 -29
-15 -39 0 -11 -11 -51 -25 -89 -14 -38 -25 -80 -25 -92 0 -30 -23 -49 -50 -41
-14 4 -20 15 -20 36 0 16 -4 29 -10 29 -5 0 -10 -6 -10 -14 0 -8 -6 -17 -12
-20 -9 -3 -8 -8 5 -16 21 -13 22 -30 2 -30 -22 0 -18 -28 5 -35 35 -11 24 -48
-40 -125 -21 -25 -40 -55 -44 -67 -4 -13 -14 -29 -22 -37 -8 -8 -17 -29 -20
-45 -8 -37 10 -41 49 -11 14 11 30 20 36 20 5 0 14 6 18 13 4 6 22 19 38 27
44 22 270 252 258 263 -2 2 3 10 12 17 12 10 15 10 15 -4 0 -9 7 -16 15 -16 8
0 15 -7 15 -15 0 -9 9 -15 25 -15 20 0 25 -5 27 -27 4 -71 -2 -90 -51 -140
-48 -50 -65 -92 -53 -135 5 -21 34 -17 63 8 9 8 18 11 22 8 7 -7 -11 -52 -30
-75 -7 -9 -10 -19 -6 -23 5 -4 8 -24 8 -44 0 -33 3 -37 25 -36 14 1 45 9 70
19 55 21 112 14 150 -19 26 -22 27 -23 10 -44 -10 -12 -73 -51 -141 -88 -184
-98 -190 -107 -104 -148 88 -41 91 -85 10 -130 -60 -33 -258 -73 -333 -68 -71
6 -194 -130 -138 -151 7 -3 30 -2 51 3 21 5 43 7 49 5 11 -4 105 -14 137 -15
17 0 39 -39 39 -69 0 -29 -21 -40 -96 -50 -63 -9 -131 -33 -144 -51 -7 -9 -59
-22 -93 -22 -15 -1 -36 7 -46 16 -30 27 -52 13 -132 -77 -40 -45 -82 -91 -93
-102 -12 -11 -39 -48 -60 -83 -20 -34 -42 -62 -47 -62 -5 0 -9 -7 -9 -15 0 -8
-9 -24 -19 -34 -24 -24 -51 -75 -51 -96 0 -8 -7 -15 -15 -15 -8 0 -15 -9 -15
-20 0 -11 -6 -20 -12 -20 -13 -1 -68 -44 -68 -54 0 -8 -61 -66 -71 -66 -5 0
-9 -6 -9 -12 0 -7 -18 -22 -40 -32 -22 -11 -40 -23 -40 -28 0 -4 -9 -8 -20 -8
-11 0 -20 -7 -20 -15 0 -8 -9 -20 -20 -27 -11 -7 -20 -18 -20 -25 0 -7 -10
-13 -23 -13 -12 0 -28 -9 -35 -20 -8 -13 -8 -20 -1 -20 5 0 7 -4 4 -10 -10
-17 -25 -11 -25 10 0 17 -7 20 -45 20 -40 0 -47 -4 -70 -37 -14 -21 -25 -52
-25 -69 0 -18 -4 -34 -9 -36 -5 -1 -11 -42 -12 -90 -2 -47 -1 -81 2 -76 4 6
12 1 19 -12 12 -21 14 -22 25 -7 6 9 15 14 18 10 4 -3 7 -1 7 5 0 7 -7 12 -15
12 -11 0 -15 11 -15 40 0 33 3 40 20 40 18 0 20 -7 20 -55 0 -57 10 -68 32
-36 7 10 22 20 33 22 11 3 29 19 40 36 12 19 29 32 41 33 14 0 27 13 40 40 16
34 24 40 50 40 17 0 37 -7 44 -15 7 -8 19 -15 26 -15 8 0 14 -10 14 -25 0 -14
5 -25 10 -25 6 0 10 -18 10 -40 0 -22 -3 -40 -7 -40 -5 0 -8 -22 -8 -50 0 -45
2 -50 25 -55 14 -3 46 -3 72 -1 44 5 49 3 73 -27 13 -19 40 -62 58 -98 19 -35
52 -98 74 -139 61 -117 238 -376 311 -455 16 -16 40 -48 54 -71 63 -98 324
-384 352 -384 10 0 13 -6 9 -17 -6 -15 -4 -16 9 -5 13 10 14 18 4 46 -6 19
-17 40 -24 49 -10 12 -10 18 3 30 8 9 15 31 15 49 l1 33 15 -28 c8 -15 19 -25
24 -22 14 9 12 21 -6 40 -10 10 -14 24 -10 40 4 14 2 25 -3 25 -4 0 -11 18
-15 40 -3 22 -15 48 -26 57 -11 10 -20 25 -20 34 0 9 -12 38 -27 64 -16 29
-26 61 -25 83 1 20 -2 40 -7 46 -8 11 -32 100 -37 141 -1 11 -8 52 -15 92 -12
68 -11 79 14 185 38 156 48 201 51 218 1 8 7 25 13 36 7 12 20 44 29 70 9 27
24 67 34 89 10 22 28 63 40 92 13 29 26 50 30 48 10 -6 -17 -100 -41 -141 -9
-18 -22 -47 -27 -65 -5 -19 -13 -43 -18 -54 -5 -12 3 -7 20 12 19 23 25 39 21
53 -4 11 -2 20 4 20 6 0 11 7 11 15 0 17 29 17 43 0 5 -6 6 1 2 15 -14 54 -17
75 -7 62 11 -17 44 -12 50 6 2 7 -5 16 -17 19 -20 5 -21 7 -6 23 9 10 30 24
46 30 16 7 29 19 29 26 0 7 13 20 30 29 16 8 40 25 54 38 60 53 95 77 116 77
18 0 20 3 11 13 -13 16 -5 27 21 27 10 0 18 5 18 10 0 6 12 8 28 4 19 -4 23
-3 13 4 -11 8 -10 12 7 21 11 6 27 11 35 11 7 0 24 11 37 25 13 14 29 24 35
21 7 -2 26 9 43 25 43 40 64 40 42 -2 -14 -25 -8 -24 36 6 47 32 57 31 52 -4
-3 -23 -1 -27 14 -23 10 2 18 5 18 6 0 0 -7 19 -15 41 -8 22 -14 53 -15 68 0
27 2 28 40 24 22 -2 42 -6 43 -8 21 -29 37 -61 37 -73 0 -9 8 -20 18 -25 9 -5
23 -26 31 -48 8 -21 28 -60 46 -88 18 -27 35 -61 38 -75 4 -14 20 -41 37 -60
16 -18 30 -40 30 -49 0 -22 40 -60 56 -54 8 3 14 -1 14 -11 0 -14 31 -22 63
-17 13 2 178 10 242 12 53 1 285 -18 291 -24 1 -1 -126 -2 -283 -2 -265 0
-286 -1 -298 -18 -12 -16 -10 -25 13 -62 14 -24 30 -41 34 -39 4 3 5 -2 2 -10
-4 -9 -1 -16 6 -16 7 0 10 -7 6 -16 -4 -9 9 -29 33 -55 22 -21 37 -39 33 -39
-3 0 -1 -5 6 -12 7 -7 12 -22 12 -34 0 -34 51 -82 91 -86 l34 -4 -27 -12 c-16
-6 -28 -16 -28 -22 0 -14 70 -110 80 -110 4 0 10 -10 13 -22 7 -26 53 -33 62
-9 3 8 0 11 -9 8 -15 -6 -50 25 -41 35 4 3 -9 11 -26 17 l-33 11 29 30 c19 20
32 27 39 20 13 -13 39 -13 31 0 -3 6 2 13 12 17 10 4 21 10 24 15 3 5 22 9 43
10 20 1 39 5 42 9 2 4 -31 5 -73 3 -63 -4 -73 -2 -53 7 14 6 43 12 65 14 32 2
41 7 45 26 3 13 16 28 28 34 12 5 20 15 18 22 -3 7 8 22 24 33 17 12 31 19 31
16 1 -3 3 -10 4 -16 1 -5 3 -17 4 -25 0 -8 8 -15 16 -15 8 0 15 7 15 15 0 8 7
15 15 15 12 0 14 -7 9 -26 -5 -20 -3 -25 7 -22 8 2 15 17 17 31 2 15 10 27 18
27 8 0 14 4 14 9 0 5 9 7 20 4 11 -3 20 -1 20 5 0 5 -19 12 -42 15 -40 5 -73
31 -63 47 9 14 -45 17 -56 4 -9 -10 -5 -16 15 -25 14 -7 26 -19 26 -28 0 -11
-3 -12 -11 -4 -6 6 -18 9 -25 6 -8 -3 -14 -1 -14 3 0 5 -25 10 -55 12 -36 2
-55 -1 -55 -8 0 -7 9 -14 20 -17 27 -7 15 -23 -18 -23 -39 0 -73 -11 -67 -21
8 -12 -36 -59 -55 -59 -9 0 -20 -3 -24 -7 -11 -12 -89 -33 -98 -27 -14 9 -9
24 6 18 11 -4 12 3 4 41 -11 53 -6 65 22 47 11 -6 22 -8 25 -3 3 5 -1 12 -7
15 -7 3 -1 4 15 2 18 -2 31 2 36 13 8 13 13 11 37 -14 l27 -29 -5 26 c-4 22
-1 27 23 32 20 4 27 10 23 21 -4 10 0 15 12 15 16 0 17 2 4 10 -34 22 -143 -1
-133 -28 5 -11 1 -10 -15 4 -12 9 -19 21 -16 25 8 14 -43 22 -63 10 -17 -10
-17 -10 0 -11 10 0 15 -5 12 -11 -5 -7 -13 -5 -24 5 -20 18 -35 21 -26 6 9
-15 -14 -12 -45 7 -45 26 -44 70 2 77 7 1 19 5 26 10 7 4 39 9 70 11 41 1 57
6 57 16 0 11 20 14 93 14 52 0 96 -3 98 -7 3 -5 -1 -8 -8 -8 -7 0 -2 -7 11
-17 20 -14 26 -14 35 -2 19 24 57 24 63 0 6 -24 18 -27 30 -8 10 18 60 30 68
17 3 -5 1 -10 -5 -10 -8 0 -8 -6 0 -20 6 -11 7 -20 3 -20 -4 0 -2 -4 6 -9 9
-6 19 -4 28 4 9 10 21 11 35 6 34 -12 35 -33 3 -29 -17 2 -30 -2 -33 -10 -3
-9 3 -13 19 -12 41 4 47 1 42 -19 -6 -23 15 -38 23 -16 4 9 22 22 41 30 30 13
39 13 76 -1 23 -9 52 -16 65 -16 22 0 32 -18 10 -18 -7 -1 -2 -7 12 -14 14 -8
28 -12 32 -10 5 3 8 -5 9 -18 0 -22 1 -22 9 -3 5 11 9 32 9 48 1 34 -36 58
-134 88 -138 42 -190 59 -205 70 -19 13 39 3 95 -18 22 -8 71 -23 108 -34 37
-10 91 -32 120 -48 52 -29 193 -81 220 -81 7 0 22 -9 32 -20 17 -19 52 -29 41
-12 -2 4 21 8 52 7 55 0 57 1 60 28 2 18 -2 29 -12 33 -29 11 -16 22 24 20 29
-2 39 1 36 10 -6 15 17 9 49 -13 18 -12 15 -13 -25 -13 l-45 -1 24 -19 c13
-11 22 -20 20 -21 -2 0 -15 -3 -29 -5 -36 -7 -45 -27 -15 -38 14 -6 25 -16 25
-24 0 -11 -10 -12 -42 -7 -61 9 -78 15 -78 26 0 5 -9 9 -20 9 -27 0 -25 -16 3
-24 12 -3 38 -19 57 -36 24 -21 41 -29 55 -24 49 14 65 16 65 5 0 -6 9 -11 20
-11 11 0 20 5 20 10 0 16 40 12 46 -5 4 -8 10 -15 15 -15 6 0 5 8 0 19 -9 16
-6 20 17 24 33 6 46 -12 26 -35 -9 -9 -13 -21 -10 -27 6 -10 86 -8 103 2 6 4
18 1 28 -7 14 -10 15 -17 6 -34 -6 -11 -11 -32 -11 -46 0 -19 -6 -26 -29 -31
-33 -7 -47 -20 -53 -50 -5 -26 -54 -22 -85 8 -27 25 -32 5 -8 -30 12 -17 23
-21 45 -18 17 3 44 7 61 10 27 4 30 3 19 -10 -7 -8 -20 -15 -30 -15 -30 0 -31
-13 -3 -26 28 -12 27 -12 -17 -13 -31 -1 -40 -4 -31 -10 8 -5 34 -8 58 -6 27
2 43 -1 43 -9 0 -6 12 -19 28 -29 l27 -17 -29 2 c-18 2 -31 -2 -34 -11 -3 -10
1 -12 17 -8 21 5 22 4 7 -18 -18 -27 -12 -35 23 -35 25 0 61 -29 61 -50 0 -6
4 -10 9 -10 25 0 16 342 -11 393 -6 12 -10 46 -9 77 1 55 -4 88 -34 230 -8 41
-20 104 -25 140 -26 193 -33 231 -51 297 -45 162 -118 369 -145 411 -12 18
-18 21 -29 12 -9 -8 -15 -8 -20 0 -3 5 1 10 10 10 26 0 6 70 -29 99 -8 7 -18
26 -21 42 -4 17 -13 33 -20 35 -7 3 -15 19 -19 36 -4 21 -10 28 -21 25 -8 -4
-17 -2 -20 3 -4 6 -1 10 4 10 16 0 13 23 -5 46 -15 18 -15 18 -11 -8 3 -21 0
-28 -17 -30 -28 -4 -27 -33 1 -32 12 0 22 -2 21 -5 -2 -20 4 -31 16 -31 23 0
29 -20 13 -38 -8 -9 -17 -26 -18 -36 -5 -22 -39 -31 -39 -10 0 24 -17 16 -24
-11 -8 -30 -1 -45 19 -45 8 0 26 -11 41 -25 32 -30 18 -34 -16 -5 -13 11 -31
20 -42 20 -10 0 -18 5 -18 10 0 12 -77 13 -84 1 -3 -5 -17 -11 -30 -15 -13 -3
-39 -20 -57 -37 -26 -25 -30 -32 -18 -40 12 -7 12 -9 -2 -9 -8 0 -21 6 -27 12
-7 7 -36 13 -65 14 -40 1 -55 -3 -65 -18 -14 -19 -38 -15 -26 4 5 7 -2 9 -22
4 -21 -5 -25 -4 -14 4 13 9 13 11 0 20 -19 13 -27 12 -35 0 -4 -6 -16 -8 -27
-4 -32 10 -12 -13 25 -30 18 -8 50 -20 72 -27 22 -6 54 -22 70 -34 40 -29 85
-40 97 -23 7 9 8 7 4 -7 -4 -15 7 -33 42 -68 53 -53 120 -107 133 -107 5 0 9
-6 9 -14 0 -7 10 -25 21 -40 12 -15 20 -29 18 -31 -2 -2 -15 11 -28 28 -27 35
-117 105 -126 97 -3 -3 -15 11 -26 30 -28 46 -55 68 -107 91 -57 25 -87 25
-49 1 15 -10 24 -22 20 -25 -3 -4 1 -7 10 -7 11 0 17 -8 17 -24 0 -18 6 -26
22 -28 34 -5 46 -49 22 -81 -10 -15 -24 -25 -31 -22 -7 2 -15 0 -18 -5 -4 -6
7 -10 24 -10 21 0 31 -5 31 -15 0 -8 5 -15 10 -15 6 0 10 -8 10 -17 -1 -17 -1
-17 -14 0 -10 13 -28 17 -70 17 -31 0 -56 -4 -56 -9 0 -13 25 -20 49 -14 26 7
26 0 4 -27 -25 -28 -37 -25 -51 14 -11 29 -19 35 -45 38 -23 2 -31 8 -29 19 2
14 -5 16 -44 11 -35 -4 -45 -2 -40 7 6 9 -1 11 -27 6 -21 -4 -37 -3 -41 4 -4
6 -29 11 -55 11 -40 0 -50 -4 -54 -19 -2 -11 0 -24 5 -29 6 -6 -8 -14 -37 -22
-25 -7 -48 -11 -50 -8 -3 2 -6 20 -8 38 -4 32 -7 34 -40 36 -20 0 -34 -3 -31
-8 3 -4 -2 -8 -11 -8 -25 0 -12 -23 14 -25 21 -2 40 -19 41 -37 0 -11 -67 -21
-82 -12 -9 5 -8 2 2 -11 14 -16 13 -17 -8 -11 -12 4 -22 3 -22 -2 0 -5 -10 -7
-22 -5 -14 3 -32 -4 -45 -16 -23 -22 -43 -27 -43 -12 0 5 -11 12 -25 15 -14 4
-25 13 -25 21 0 19 -16 19 -24 0 -3 -8 -1 -15 4 -15 5 0 21 -11 36 -25 26 -24
26 -25 5 -25 -11 0 -21 5 -21 11 0 8 -26 10 -87 6 -49 -4 -90 -7 -92 -7 -2 0
-1 -9 2 -20 3 -10 0 -21 -7 -24 -8 -3 -8 -7 1 -13 8 -6 10 -18 4 -38 -6 -25
-13 -30 -42 -31 -62 -2 -64 -3 -52 -15 14 -14 6 -39 -12 -39 -8 0 -12 10 -10
26 3 32 -21 43 -39 19 -12 -17 -14 -15 -24 13 -7 19 -7 32 -1 32 5 0 9 -4 9
-10 0 -5 10 -8 23 -6 12 3 29 5 37 5 13 1 13 2 0 11 -8 5 -24 7 -35 5 -11 -3
-14 -2 -7 1 6 3 12 12 12 20 0 8 4 14 9 14 4 0 7 11 6 25 -2 14 0 25 3 25 4 0
25 12 47 26 l40 25 -47 -5 c-54 -6 -65 9 -15 19 37 9 70 29 60 38 -11 12 -23
7 -23 -9 0 -8 -5 -12 -10 -9 -6 4 -9 14 -8 23 2 11 -2 16 -12 13 -35 -10 -155
-9 -167 1 -7 6 -13 8 -13 5 0 -3 -13 -1 -30 4 -34 12 -31 27 20 77 16 17 30
35 30 41 0 6 9 11 19 11 23 0 36 16 21 25 -5 3 -10 9 -10 13 0 12 54 30 94 31
21 0 47 3 57 6 18 6 18 8 2 32 -16 25 -17 25 -25 4 -4 -12 -14 -21 -22 -21
-21 0 -15 49 7 56 20 6 47 -12 47 -31 0 -7 8 -12 18 -11 9 0 16 -5 14 -12 -1
-8 5 -12 15 -10 10 2 21 16 24 33 l7 30 1 -32 c2 -56 57 -56 82 -1 9 21 22 33
39 35 14 2 31 4 38 5 6 1 12 8 12 17 0 22 52 70 57 54 4 -10 8 -9 20 2 9 9 24
13 39 9 19 -5 26 -1 33 17 5 13 7 27 4 32 -2 4 2 7 9 8 25 1 -27 18 -59 18
-53 1 -38 21 16 21 47 0 49 1 70 43 11 23 33 57 47 75 15 17 22 32 16 32 -6 0
-16 9 -22 21 -13 23 -12 24 77 85 28 19 58 46 67 59 9 14 22 25 29 25 7 0 19
9 27 20 8 11 20 20 28 20 7 0 31 18 54 39 22 22 53 42 67 44 l26 3 -28 12
c-34 14 -28 28 33 86 22 21 43 50 46 62 4 13 9 24 13 24 3 0 12 14 19 30 8 17
18 28 22 25 5 -3 8 7 7 22 -2 21 2 28 15 27 10 -1 15 3 12 8 -3 5 -12 7 -20 4
-20 -8 -17 0 12 29 15 15 23 32 20 41 -18 46 -17 59 6 69 13 6 24 20 26 32 2
12 12 39 22 60 10 21 14 40 9 41 -14 6 -11 22 11 49 25 32 47 106 61 197 5 38
16 90 24 115 30 96 42 160 32 164 -6 2 -4 16 6 35 12 26 15 51 11 115 -3 45
-5 91 -4 102 1 11 1 29 -1 40 -1 11 -2 75 -3 141 0 95 -3 121 -13 117 -17 -7
-16 3 3 33 15 23 15 30 -1 95 -9 39 -13 74 -9 77 3 4 9 1 11 -6 3 -7 20 -33
38 -56 18 -24 36 -54 40 -67 3 -13 10 -33 15 -44 5 -11 17 -45 28 -75 11 -30
31 -80 45 -110 14 -30 48 -122 75 -205 28 -82 83 -242 122 -355 40 -113 75
-217 80 -232 14 -46 92 -172 126 -203 18 -17 41 -56 54 -90 12 -33 25 -69 30
-80 27 -69 93 -382 92 -435 -1 -41 39 -235 49 -238 5 -2 9 -12 9 -22 0 -10 22
-40 48 -65 59 -57 188 -115 275 -122 l57 -6 0 2072 c0 2060 0 2071 -20 2071
-15 0 -19 6 -17 23 1 14 -3 21 -12 19 -9 -2 -12 4 -8 17 3 13 1 18 -8 14 -9
-3 -12 2 -9 15 7 25 -57 82 -92 82 -18 0 -24 4 -21 13 3 7 -8 22 -24 33 -16
10 -29 22 -29 27 0 4 -6 7 -13 7 -14 0 -47 35 -47 50 0 6 -12 10 -27 10 -14 0
-23 3 -20 7 11 10 -24 43 -45 43 -10 0 -18 7 -18 15 0 8 -4 15 -10 15 -5 0
-10 7 -10 15 0 8 7 15 15 15 26 0 16 18 -17 32 -27 11 -364 13 -1915 16
l-1882 3 -3 -43 -3 -43 -57 -2 c-33 -1 -58 2 -58 8 0 6 -27 9 -62 8 -35 0 -88
4 -118 10 -30 5 -95 15 -145 21 -49 7 -98 16 -107 21 -12 6 -20 4 -28 -9 -9
-15 -11 -15 -22 -2 -7 9 -24 17 -38 19 -14 1 -359 5 -768 7 l-743 5 -14 -33
c-29 -71 -89 -138 -304 -341 -90 -86 -116 -105 -127 -96 -8 6 -21 9 -29 5 -15
-5 -55 29 -55 47 0 5 -8 17 -17 26 -20 18 -64 75 -105 136 -25 36 -101 117
-209 220 l-36 35 -511 0 -512 0 0 -385z m6227 357 c7 -4 14 -19 15 -32 2 -13
15 -37 31 -54 15 -17 27 -38 27 -48 0 -9 16 -43 35 -75 19 -32 35 -63 35 -70
0 -6 4 -13 9 -15 4 -1 22 -34 40 -71 17 -39 39 -71 49 -74 9 -2 25 -18 35 -35
15 -27 17 -46 11 -144 -7 -120 -14 -133 -49 -94 -10 11 -15 20 -11 20 4 0 1 7
-8 15 -8 8 -21 15 -29 15 -8 0 -18 7 -21 16 -4 10 -2 13 6 8 8 -5 9 -2 3 12
-4 10 -10 29 -12 42 -6 24 -23 41 -23 21 0 -8 -4 -8 -15 1 -8 7 -15 17 -15 23
0 5 -11 33 -24 61 -13 28 -38 94 -56 146 -18 52 -50 133 -71 179 -38 82 -45
113 -33 145 6 17 50 21 71 8z m-5507 -37 c0 -23 -2 -24 -20 -15 -11 6 -20 17
-20 25 0 8 9 15 20 15 15 0 20 -7 20 -25z m2076 1 c5 -12 36 -15 168 -15 116
0 175 -4 207 -15 93 -30 171 -45 271 -52 56 -3 107 -9 112 -12 5 -3 66 -7 135
-8 69 -2 149 -5 176 -7 28 -3 83 -6 124 -7 85 -3 106 -17 116 -77 3 -21 10
-56 15 -78 9 -38 9 -38 6 -5 -6 53 3 90 20 83 8 -3 14 -16 14 -28 0 -13 5 -27
10 -30 6 -3 10 -33 10 -66 0 -70 17 -118 54 -146 28 -22 35 -38 12 -30 -10 4
-12 0 -8 -15 3 -13 7 -16 12 -8 9 14 15 -1 26 -63 7 -43 19 -54 39 -37 11 9
19 3 42 -32 36 -55 48 -68 66 -68 8 0 24 -8 35 -17 23 -21 46 -83 31 -83 -15
0 -1 -38 22 -61 10 -10 25 -19 33 -19 12 0 12 -4 1 -27 -7 -16 -15 -35 -16
-43 -4 -26 13 -90 24 -90 6 0 21 -12 33 -27 19 -24 24 -26 38 -14 14 12 16 10
16 -10 1 -21 2 -22 11 -6 13 23 35 22 52 -4 11 -15 16 -17 20 -7 6 18 22 2 51
-55 22 -44 23 -51 10 -75 -16 -31 -20 -77 -5 -53 8 12 12 12 26 -3 14 -13 15
-19 5 -31 -7 -8 -16 -15 -21 -15 -5 0 -34 -25 -64 -55 -66 -65 -45 -79 24 -16
39 35 46 38 72 29 29 -10 38 -31 19 -43 -6 -4 -1 -14 12 -25 19 -15 24 -16 31
-4 4 8 12 14 17 14 8 0 7 -20 -5 -70 -4 -15 0 -33 9 -45 15 -20 15 -19 16 5 0
14 4 31 9 39 10 16 31 6 31 -15 0 -18 36 -54 54 -54 42 0 41 91 -3 280 -17 69
-35 163 -41 210 -5 47 -13 95 -16 108 -4 13 -2 22 5 22 6 0 11 -15 11 -34 0
-19 5 -38 10 -41 6 -3 10 -13 10 -21 0 -8 12 -38 26 -67 14 -28 34 -74 43
-102 12 -34 28 -57 50 -72 30 -21 31 -22 9 -25 -33 -4 -34 -40 -4 -157 29
-111 31 -139 14 -176 -15 -34 -23 -32 -37 14 -6 22 -19 41 -28 43 -13 2 -85
-64 -168 -155 -27 -30 -95 -125 -95 -133 0 -23 -40 -33 -106 -27 -86 7 -189 6
-229 -2 -16 -3 -53 -18 -81 -33 -45 -22 -57 -25 -90 -17 -47 12 -95 72 -157
195 -23 47 -45 86 -49 88 -5 2 -8 8 -8 12 0 5 -27 59 -60 119 -33 61 -60 122
-60 136 0 18 -5 25 -20 25 -18 0 -28 21 -42 91 -3 16 -33 56 -105 139 -18 21
-33 40 -33 43 0 14 -57 72 -267 269 -95 88 -186 178 -203 200 -17 21 -36 38
-43 38 -7 0 -43 30 -82 65 -38 36 -74 65 -80 65 -5 0 -26 14 -45 30 -24 21
-31 32 -23 38 17 11 -47 79 -84 88 -35 9 -123 82 -123 102 0 9 -3 12 -7 9 -10
-11 -33 13 -33 34 0 11 -6 19 -14 19 -8 0 -17 8 -21 18 -6 16 -7 16 -19 0 -21
-28 -32 -21 -42 24 -7 32 -16 46 -37 56 -33 16 -34 25 -6 53 16 16 29 20 54
16 21 -3 40 0 52 8 24 19 52 19 59 1z m2284 -1811 c0 -23 -29 -106 -55 -155
-12 -25 -26 -63 -30 -86 -8 -49 -41 -107 -58 -101 -17 6 -10 51 20 112 23 49
24 57 12 85 -10 21 -21 30 -36 30 -13 0 -23 4 -23 9 0 5 6 9 13 8 38 -1 56 5
61 21 7 22 72 92 86 92 5 0 10 -7 10 -15z m-162 -72 c-6 -8 -17 -12 -25 -9 -7
3 -13 -1 -13 -9 0 -8 -8 -15 -17 -14 -11 0 -13 3 -5 6 6 2 12 11 12 18 0 8 9
16 19 20 13 4 18 12 15 23 -5 14 -3 14 10 -2 12 -15 13 -23 4 -33z m-468 -320
c14 -10 34 -25 44 -35 19 -17 18 -18 -32 -18 -47 0 -53 3 -62 26 -17 45 6 57
50 27z m158 -60 c-10 -2 -26 -2 -35 0 -10 3 -2 5 17 5 19 0 27 -2 18 -5z m162
-23 c0 -13 -40 -13 -60 0 -11 7 -5 10 23 10 20 0 37 -4 37 -10z m342 -57 c-56
-113 -121 -213 -138 -213 -8 0 -14 -4 -14 -10 0 -5 -4 -10 -10 -10 -24 0 82
210 118 232 36 23 55 23 44 1z m-2655 -120 c-3 -10 -5 -2 -5 17 0 19 2 27 5
18 2 -10 2 -26 0 -35z m-2350 -175 c-3 -7 -5 -2 -5 12 0 14 2 19 5 13 2 -7 2
-19 0 -25z m2133 -8 c0 -5 -8 -10 -17 -10 -15 0 -16 2 -3 10 19 12 20 12 20 0z
m-675 -60 c3 -5 1 -10 -4 -10 -6 0 -11 5 -11 10 0 6 2 10 4 10 3 0 8 -4 11
-10z m-785 -1055 c0 -8 -7 -15 -15 -15 -9 0 -12 6 -9 15 4 8 10 15 15 15 5 0
9 -7 9 -15z m-190 -276 c0 -5 -4 -9 -10 -9 -5 0 -10 7 -10 16 0 8 5 12 10 9 6
-3 10 -10 10 -16z m-396 -25 c19 -7 21 -34 3 -34 -14 0 -37 20 -37 32 0 10 13
10 34 2z m484 -137 c12 -21 22 -48 21 -60 0 -12 -3 -17 -5 -10 -3 7 -13 9 -22
6 -15 -4 -15 -3 -2 6 12 8 13 14 2 28 -16 24 -31 58 -38 91 l-6 27 15 -25 c7
-14 24 -42 35 -63z m25 20 c-9 -15 -21 4 -15 25 5 21 6 21 12 2 4 -10 5 -22 3
-27z m585 -5 c2 -7 -2 -10 -12 -6 -9 3 -16 11 -16 16 0 13 23 5 28 -10z
m-1208 -206 c0 -3 -4 -8 -10 -11 -5 -3 -10 -1 -10 4 0 6 5 11 10 11 6 0 10 -2
10 -4z m1186 -34 c-17 -16 -18 -16 -5 5 7 12 15 20 18 17 3 -2 -3 -12 -13 -22z
m-1014 -24 c-7 -7 -12 -25 -12 -40 0 -24 -2 -27 -14 -16 -18 17 2 67 29 68 5
0 4 -5 -3 -12z m7088 -34 c0 -8 -4 -14 -9 -14 -11 0 -22 26 -14 34 9 9 23 -3
23 -20z m70 -44 c0 -5 -2 -10 -4 -10 -3 0 -8 5 -11 10 -3 6 -1 10 4 10 6 0 11
-4 11 -10z m-7270 -30 c-20 -13 -33 -13 -25 0 3 6 14 10 23 10 15 0 15 -2 2
-10z m6050 -14 c0 -2 -11 -6 -25 -8 -13 -3 -22 -1 -19 3 5 9 44 13 44 5z
m1174 -5 c4 -5 -3 -7 -14 -4 -23 6 -26 13 -6 13 8 0 17 -4 20 -9z m40 -27 c9
-24 7 -28 -9 -14 -17 14 -20 30 -6 30 5 0 12 -7 15 -16z m-1424 -8 c0 -8 -4
-18 -10 -21 -5 -3 -10 3 -10 14 0 12 5 21 10 21 6 0 10 -6 10 -14z m86 -72
c-3 -8 -11 -14 -18 -14 -9 0 -9 3 0 12 7 7 13 21 13 33 1 17 2 18 6 2 3 -10 2
-25 -1 -33z m-227 1 c-10 -9 -79 -16 -79 -8 0 12 74 31 79 20 1 -5 1 -10 0
-12z m-114 -65 c7 -11 -19 -23 -72 -35 -21 -4 -33 -3 -33 4 0 12 55 39 82 40
9 1 20 -4 23 -9z m1255 -10 c0 -5 -4 -10 -10 -10 -5 0 -10 5 -10 10 0 6 5 10
10 10 6 0 10 -4 10 -10z m540 -30 c0 -5 -5 -10 -11 -10 -5 0 -7 5 -4 10 3 6 8
10 11 10 2 0 4 -4 4 -10z m-470 -75 c-6 -8 -9 -19 -5 -25 4 -6 -4 -10 -20 -10
-22 0 -24 3 -15 19 9 18 24 28 44 30 5 1 3 -6 -4 -14z m-385 -45 c3 -5 17 -10
31 -10 15 0 24 -6 24 -16 0 -11 -5 -14 -16 -10 -9 3 -27 6 -40 6 -17 0 -24 6
-24 20 0 21 15 27 25 10z m857 -4 c5 3 12 -3 15 -15 3 -12 12 -21 19 -21 8 0
14 -7 14 -16 0 -12 -12 -15 -64 -13 -35 1 -74 8 -87 14 l-23 13 32 16 c17 9
40 16 52 16 11 0 20 6 21 13 0 9 2 9 6 -1 2 -6 9 -9 15 -6z m-731 -35 c-8 -5
-20 -7 -28 -4 -11 4 -10 8 4 19 12 8 21 9 28 3 6 -7 5 -13 -4 -18z m-191 -5
c0 -8 -4 -18 -10 -21 -5 -3 -10 3 -10 14 0 12 5 21 10 21 6 0 10 -6 10 -14z
m-133 -22 c-3 -3 -12 -4 -19 -1 -8 3 -5 6 6 6 11 1 17 -2 13 -5z m384 -11 c33
-20 38 -43 9 -43 -12 0 -20 7 -20 16 0 9 -9 18 -20 21 -21 6 -28 23 -9 23 6 0
24 -8 40 -17z m-1111 -3 c0 -5 -4 -10 -10 -10 -5 0 -10 5 -10 10 0 6 5 10 10
10 6 0 10 -4 10 -10z m887 4 c-3 -3 -12 -4 -19 -1 -8 3 -5 6 6 6 11 1 17 -2
13 -5z m423 -10 c0 -9 -5 -14 -12 -12 -18 6 -21 28 -4 28 9 0 16 -7 16 -16z
m-255 -4 c3 -5 -1 -10 -9 -10 -9 0 -16 5 -16 10 0 6 4 10 9 10 6 0 13 -4 16
-10z m199 -6 c9 -22 8 -24 -9 -24 -8 0 -15 9 -15 20 0 24 15 27 24 4z m-274
-14 c0 -5 -11 -10 -25 -10 -14 0 -25 5 -25 10 0 6 11 10 25 10 14 0 25 -4 25
-10z m-330 -15 c-7 -8 -17 -12 -22 -9 -6 4 -5 10 3 15 22 14 33 10 19 -6z
m450 -51 c0 -2 -9 0 -20 6 -11 6 -20 13 -20 16 0 2 9 0 20 -6 11 -6 20 -13 20
-16z m-780 -34 c0 -5 -4 -10 -9 -10 -6 0 -13 5 -16 10 -3 6 1 10 9 10 9 0 16
-4 16 -10z m-20 -90 c0 -5 -5 -10 -11 -10 -5 0 -7 5 -4 10 3 6 8 10 11 10 2 0
4 -4 4 -10z m-1430 -114 c0 -26 -23 -51 -39 -42 -5 3 -11 0 -14 -6 -3 -10 -8
-10 -17 -2 -9 9 -4 19 22 43 40 37 48 38 48 7z m68 4 c-7 -11 -16 -20 -20 -20
-5 0 -8 -7 -8 -16 0 -8 -4 -12 -10 -9 -13 8 -13 45 1 45 5 0 7 5 4 10 -4 6 5
10 19 10 24 0 25 -2 14 -20z m1972 -70 c0 -5 -2 -10 -4 -10 -3 0 -8 5 -11 10
-3 6 -1 10 4 10 6 0 11 -4 11 -10z m-2115 -21 c11 -16 -2 -22 -32 -15 -21 6
-24 9 -12 17 19 12 36 11 44 -2z m3019 -15 c9 -23 7 -46 -3 -40 -11 7 -21 56
-11 56 4 0 11 -7 14 -16z m-287 -10 c-3 -3 -12 -4 -19 -1 -8 3 -5 6 6 6 11 1
17 -2 13 -5z m-2851 -31 c-2 -2 -11 0 -20 3 -14 5 -15 9 -5 15 12 7 34 -10 25
-18z m2744 17 c0 -5 6 -10 14 -10 7 0 20 -7 27 -17 15 -17 12 -16 -33 6 -28
14 -37 31 -18 31 6 0 10 -4 10 -10z m-83 -16 c-3 -3 -12 -4 -19 -1 -8 3 -5 6
6 6 11 1 17 -2 13 -5z m-837 -14 c0 -5 -7 -10 -16 -10 -8 0 -12 5 -9 10 3 6
10 10 16 10 5 0 9 -4 9 -10z m1440 -15 c0 -24 -28 -25 -32 -1 -4 19 -1 22 14
18 10 -2 18 -10 18 -17z m-1540 5 c0 -10 -41 -30 -60 -30 -5 0 -7 6 -4 14 5
13 15 17 57 25 4 0 7 -4 7 -9z m1437 -16 c-9 -9 -28 6 -21 18 4 6 10 6 17 -1
6 -6 8 -13 4 -17z m-3255 -14 c3 -16 1 -30 -4 -30 -4 0 -8 14 -8 30 0 17 2 30
4 30 2 0 6 -13 8 -30z m163 10 c-3 -5 -12 -10 -18 -10 -7 0 -6 4 3 10 19 12
23 12 15 0z m70 0 c-3 -5 -10 -10 -16 -10 -5 0 -9 5 -9 10 0 6 7 10 16 10 8 0
12 -4 9 -10z m1805 -50 c0 -5 -7 -10 -16 -10 -8 0 -12 5 -9 10 3 6 10 10 16
10 5 0 9 -4 9 -10z m1120 -28 c0 -11 -45 -32 -66 -32 -24 0 -11 24 17 31 35
10 49 10 49 1z m160 -16 c0 -3 -4 -8 -10 -11 -5 -3 -10 -1 -10 4 0 6 5 11 10
11 6 0 10 -2 10 -4z m-3195 -66 c3 -5 1 -10 -4 -10 -6 0 -11 5 -11 10 0 6 2
10 4 10 3 0 8 -4 11 -10z m-288 -62 c-3 -8 -6 -5 -6 6 -1 11 2 17 5 13 3 -3 4
-12 1 -19z m403 -45 c0 -17 -5 -24 -17 -21 -17 3 -26 33 -18 57 8 21 35 -6 35
-36z m3155 7 c3 -5 1 -10 -4 -10 -6 0 -11 5 -11 10 0 6 2 10 4 10 3 0 8 -4 11
-10z m-3188 -107 c2 -6 -4 -19 -14 -29 -10 -9 -18 -22 -18 -28 0 -6 -11 -13
-25 -14 -21 -4 -23 -2 -10 13 13 15 11 16 -23 10 -50 -10 -47 2 7 25 24 10 47
23 51 30 8 13 27 9 32 -7z m-40 -445 c-2 -13 -4 -3 -4 22 0 25 2 35 4 23 2
-13 2 -33 0 -45z m113 -12 c0 -2 -9 -6 -20 -9 -11 -3 -18 -1 -14 4 5 9 34 13
34 5z m-1 -41 c16 9 41 -7 41 -26 0 -12 7 -19 20 -19 28 0 28 -61 -1 -94 -42
-48 -98 -6 -110 83 -9 64 -5 75 22 61 11 -6 23 -8 28 -5z m-3752 -17 c-3 -8
-6 -5 -6 6 -1 11 2 17 5 13 3 -3 4 -12 1 -19z m3709 -151 c32 -37 37 -47 20
-47 -9 0 -16 5 -16 12 0 6 -10 22 -22 35 -12 13 -17 23 -12 23 6 0 19 -10 30
-23z m70 -74 c-7 -7 -26 7 -26 19 0 6 6 6 15 -2 9 -7 13 -15 11 -17z m-3939
-245 c-3 -8 -6 -5 -6 6 -1 11 2 17 5 13 3 -3 4 -12 1 -19z"/>
<path d="M4240 12156 c0 -2 7 -9 15 -16 13 -11 14 -10 9 4 -5 14 -24 23 -24
12z"/>
<path d="M4457 11525 c-13 -69 -14 -85 -6 -85 5 0 10 8 10 18 1 9 5 4 9 -13 6
-25 8 -26 9 -7 0 13 6 20 11 17 6 -3 10 1 10 9 0 9 -6 16 -14 16 -10 0 -16 14
-18 43 l-4 42 -7 -40z"/>
<path d="M4482 11385 c0 -16 2 -22 5 -12 2 9 2 23 0 30 -3 6 -5 -1 -5 -18z"/>
<path d="M4640 11230 c0 -5 5 -10 10 -10 6 0 10 5 10 10 0 6 -4 10 -10 10 -5
0 -10 -4 -10 -10z"/>
<path d="M4630 11194 c0 -8 5 -12 10 -9 6 4 8 11 5 16 -9 14 -15 11 -15 -7z"/>
<path d="M4835 11050 c-3 -5 -1 -10 4 -10 6 0 11 5 11 10 0 6 -2 10 -4 10 -3
0 -8 -4 -11 -10z"/>
<path d="M4413 11023 c-7 -3 -13 -12 -13 -21 0 -15 2 -15 17 1 18 18 16 27 -4
20z"/>
<path d="M4326 10874 c-3 -9 -6 -34 -5 -57 l1 -42 10 38 c6 21 16 37 24 37 12
0 12 4 4 20 -13 24 -26 26 -34 4z"/>
<path d="M8234 12765 c-10 -54 3 -118 27 -134 12 -7 18 -8 14 -2 -3 6 1 11 9
11 13 0 16 14 16 80 l0 80 -30 0 c-25 0 -30 -4 -36 -35z"/>
<path d="M1260 12200 c0 -5 5 -10 10 -10 6 0 10 5 10 10 0 6 -4 10 -10 10 -5
0 -10 -4 -10 -10z"/>
<path d="M1530 12010 c-11 -7 -11 -10 -2 -10 7 0 20 -15 28 -32 12 -25 14 -27
10 -8 -3 14 -6 33 -6 43 0 19 -8 21 -30 7z"/>
<path d="M65 11850 c-3 -5 -1 -10 4 -10 6 0 11 5 11 10 0 6 -2 10 -4 10 -3 0
-8 -4 -11 -10z"/>
<path d="M20 11779 c0 -5 5 -7 10 -4 6 3 10 8 10 11 0 2 -4 4 -10 4 -5 0 -10
-5 -10 -11z"/>
<path d="M4289 10183 c-19 -21 -45 -51 -57 -67 l-23 -29 27 -28 c19 -20 26
-39 28 -70 1 -40 3 -43 29 -43 21 0 40 13 74 49 46 50 46 50 34 90 -7 22 -18
60 -25 85 -17 59 -40 62 -87 13z"/>
<path d="M2720 10159 c-51 -16 -60 -29 -19 -30 108 -3 154 -8 173 -17 11 -6
41 -18 66 -26 l45 -15 -50 -1 c-70 -2 -106 -18 -42 -19 26 -1 47 -5 47 -10 0
-4 19 -11 43 -13 23 -3 58 -12 77 -21 19 -9 60 -23 90 -30 69 -18 85 -42 62
-96 -16 -38 -27 -81 -43 -171 -6 -30 -16 -73 -22 -95 -20 -66 -15 -441 7 -550
31 -161 96 -408 130 -500 19 -49 47 -135 62 -190 15 -55 38 -125 51 -155 24
-54 24 -54 37 -29 7 14 16 37 19 51 11 43 96 210 132 258 19 25 34 52 34 60 1
15 99 152 113 158 5 2 8 9 8 15 0 12 4 17 97 132 51 64 144 188 168 226 6 9
22 35 37 57 16 23 28 44 28 46 0 2 -19 4 -42 3 -37 -2 -43 1 -40 17 3 13 -1
17 -12 13 -8 -3 -20 1 -26 9 -7 8 -21 14 -31 14 -25 0 -24 20 1 27 37 10 8 25
-35 19 -37 -6 -43 -4 -48 13 -3 12 -18 26 -33 32 -47 17 -59 38 -60 103 0 38
-6 63 -15 70 -8 6 -21 27 -30 46 -16 34 -50 57 -114 76 -23 7 -30 16 -30 34
-1 17 -6 25 -18 24 -9 -1 -17 2 -17 6 0 5 -8 11 -18 14 -9 3 -35 28 -57 56
-27 34 -47 50 -62 50 -20 0 -23 5 -23 35 0 27 -4 35 -18 35 -10 0 -29 11 -42
25 -13 14 -28 25 -34 24 -30 -4 -36 3 -36 41 0 40 -1 41 -67 73 -38 18 -79 40
-93 49 -74 48 -272 81 -350 57z m1005 -749 c3 -5 1 -10 -4 -10 -6 0 -11 5 -11
10 0 6 2 10 4 10 3 0 8 -4 11 -10z m152 -136 c-3 -3 -12 -4 -19 -1 -8 3 -5 6
6 6 11 1 17 -2 13 -5z"/>
<path d="M2490 10090 c-12 -8 -12 -10 5 -10 19 -1 19 -1 3 -14 -10 -7 -18 -26
-18 -41 0 -26 1 -27 23 -12 15 10 22 24 22 47 0 36 -11 45 -35 30z"/>
<path d="M2628 10063 c-20 -5 -32 -48 -19 -72 6 -10 21 -26 35 -35 28 -18 61
-22 51 -6 -3 6 -15 10 -26 10 -16 0 -19 5 -14 20 5 15 2 20 -12 21 -10 0 -13
3 -6 5 7 3 10 11 7 18 -3 9 6 16 27 20 18 3 30 8 28 10 -8 7 -55 13 -71 9z"/>
<path d="M2743 10053 c15 -2 39 -2 55 0 15 2 2 4 -28 4 -30 0 -43 -2 -27 -4z"/>
<path d="M2279 9987 c-32 -12 -38 -57 -9 -57 31 0 50 -11 50 -29 0 -10 11 -28
25 -41 28 -26 31 -56 10 -84 -19 -25 -19 -52 -2 -59 19 -7 30 3 45 43 24 61
30 113 21 170 -5 30 -9 58 -9 63 0 10 -101 7 -131 -6z m21 -27 c0 -5 -5 -10
-11 -10 -5 0 -7 5 -4 10 3 6 8 10 11 10 2 0 4 -4 4 -10z"/>
<path d="M4406 9914 c-21 -19 -49 -42 -62 -51 -26 -17 -32 -43 -10 -43 8 0 31
16 51 35 30 28 41 33 56 24 11 -5 19 -18 19 -28 0 -10 9 -21 20 -24 15 -4 20
0 20 15 0 11 -8 22 -20 25 -15 4 -20 14 -20 39 0 18 -4 35 -8 38 -4 3 -25 -11
-46 -30z"/>
<path d="M2270 9901 c0 -12 5 -21 10 -21 6 0 10 6 10 14 0 8 -4 18 -10 21 -5
3 -10 -3 -10 -14z"/>
<path d="M1555 9800 c-4 -6 -15 -8 -24 -5 -10 3 -25 -3 -35 -14 -15 -16 -15
-19 -1 -24 20 -8 56 6 79 32 16 18 17 21 3 21 -9 0 -19 -5 -22 -10z"/>
<path d="M2402 9687 c-1 -11 -12 -27 -24 -37 -17 -14 -20 -22 -12 -30 16 -16
-4 -98 -25 -103 -9 -3 -2 -5 16 -6 44 -1 55 22 50 117 -1 42 -4 69 -5 59z"/>
<path d="M4396 9584 c-5 -13 -3 -14 6 -7 7 6 20 13 28 16 10 4 8 6 -6 6 -12 1
-25 -6 -28 -15z"/>
<path d="M2390 9450 c-10 -7 -11 -10 -2 -10 6 0 12 -9 12 -20 0 -24 15 -26 24
-3 9 23 -14 45 -34 33z"/>
<path d="M2410 9250 c0 -25 4 -39 10 -35 6 3 10 19 10 35 0 16 -4 32 -10 35
-6 4 -10 -10 -10 -35z"/>
<path d="M2411 9107 c-16 -20 -6 -56 10 -40 6 6 9 21 7 33 -3 21 -4 22 -17 7z"/>
<path d="M2390 9036 c0 -11 33 -36 40 -31 15 9 -1 35 -21 35 -10 0 -19 -2 -19
-4z"/>
<path d="M6770 8780 c0 -5 5 -10 10 -10 6 0 10 5 10 10 0 6 -4 10 -10 10 -5 0
-10 -4 -10 -10z"/>
<path d="M6960 8658 c0 -9 5 -20 11 -23 17 -11 18 -2 3 19 -12 17 -14 17 -14
4z"/>
<path d="M7140 8630 c0 -13 7 -20 20 -20 24 0 27 25 4 34 -23 9 -24 8 -24 -14z"/>
<path d="M7240 8521 c13 -26 13 -31 -5 -31 -22 0 -18 -17 5 -23 10 -3 19 -2
18 2 -1 3 2 14 7 24 4 10 2 23 -5 32 -18 22 -33 18 -20 -4z"/>
<path d="M6950 8464 c0 -8 5 -12 10 -9 6 3 10 10 10 16 0 5 -4 9 -10 9 -5 0
-10 -7 -10 -16z"/>
<path d="M7124 8465 c24 -18 39 -20 34 -2 -3 6 -15 13 -29 15 -23 2 -23 2 -5
-13z"/>
<path d="M7170 8395 c0 -8 5 -15 10 -15 6 0 10 7 10 15 0 8 -4 15 -10 15 -5 0
-10 -7 -10 -15z"/>
<path d="M7270 8340 c-8 -5 -11 -12 -7 -16 4 -4 13 -2 19 4 15 15 7 24 -12 12z"/>
<path d="M7111 8304 c0 -11 3 -14 6 -6 3 7 2 16 -1 19 -3 4 -6 -2 -5 -13z"/>
<path d="M6363 8296 c-14 -17 -7 -26 21 -26 17 0 18 2 6 10 -13 9 -13 11 0 20
13 9 13 10 0 9 -8 0 -20 -6 -27 -13z"/>
<path d="M7147 8290 c3 -12 -1 -22 -11 -26 -29 -11 -17 -20 22 -16 64 6 68 10
42 37 -29 31 -60 34 -53 5z"/>
<path d="M6820 8280 c0 -5 5 -10 10 -10 6 0 10 5 10 10 0 6 -4 10 -10 10 -5 0
-10 -4 -10 -10z"/>
<path d="M6855 8280 c3 -5 8 -10 11 -10 2 0 4 5 4 10 0 6 -5 10 -11 10 -5 0
-7 -4 -4 -10z"/>
<path d="M300 8236 c0 -18 27 -29 36 -14 4 5 0 14 -7 19 -20 13 -29 11 -29 -5z"/>
<path d="M444 8213 c14 -14 29 -23 32 -20 7 7 -33 47 -47 47 -7 0 0 -12 15
-27z"/>
<path d="M6556 8232 c-3 -6 -1 -14 5 -17 15 -10 25 3 12 16 -7 7 -13 7 -17 1z"/>
<path d="M390 8200 c-13 -8 -12 -10 3 -10 9 0 17 5 17 10 0 12 -1 12 -20 0z"/>
<path d="M6730 8200 c0 -5 7 -10 15 -10 8 0 15 5 15 10 0 6 -7 10 -15 10 -8 0
-15 -4 -15 -10z"/>
<path d="M6910 8185 c0 -8 5 -15 10 -15 6 0 10 7 10 15 0 8 -4 15 -10 15 -5 0
-10 -7 -10 -15z"/>
<path d="M6686 8176 c21 -15 30 -14 19 3 -3 6 -14 11 -23 11 -13 0 -13 -2 4
-14z"/>
<path d="M3 8092 c0 -31 3 -65 8 -74 7 -13 6 -18 -3 -19 -7 0 -3 -4 10 -9 12
-5 22 -15 22 -21 0 -8 12 -10 35 -6 20 3 37 1 41 -5 4 -7 10 -5 16 6 11 20 54
21 62 1 3 -8 17 -15 32 -15 17 0 24 -4 21 -12 -3 -8 5 -14 21 -15 22 -1 19 4
-29 49 -30 27 -72 59 -94 70 -22 12 -47 28 -55 37 -8 10 -31 29 -51 44 l-35
26 -1 -57z m62 -21 c3 -5 1 -12 -5 -16 -5 -3 -10 1 -10 9 0 18 6 21 15 7z"/>
<path d="M6750 8106 c0 -2 13 -6 29 -8 17 -2 28 -1 25 4 -5 8 -54 12 -54 4z"/>
<path d="M5936 7981 c21 -21 29 -19 21 4 -4 8 -14 15 -23 15 -16 0 -16 -2 2
-19z"/>
<path d="M6147 7993 c-10 -3 -16 -10 -14 -16 6 -20 24 -18 30 3 3 11 4 19 4
19 -1 -1 -10 -3 -20 -6z"/>
<path d="M6890 7969 c-11 -8 -12 -12 -2 -16 6 -2 12 -11 12 -19 0 -8 5 -14 12
-14 6 0 8 3 5 7 -4 3 -2 12 4 19 10 13 5 34 -9 34 -4 0 -14 -5 -22 -11z"/>
<path d="M156 7944 c-3 -9 -2 -23 4 -32 5 -10 10 -15 10 -12 8 37 8 50 1 54
-5 3 -12 -1 -15 -10z"/>
<path d="M6750 7940 c-9 -16 -8 -20 5 -20 8 0 15 9 15 20 0 11 -2 20 -5 20 -2
0 -9 -9 -15 -20z"/>
<path d="M0 7914 c0 -25 3 -33 12 -27 7 4 22 7 32 8 22 0 35 25 13 25 -8 0
-17 7 -21 15 -3 8 -12 15 -21 15 -11 0 -15 -10 -15 -36z"/>
<path d="M356 7905 c4 -8 7 -15 9 -15 1 0 8 7 15 15 10 13 9 15 -8 15 -15 0
-20 -5 -16 -15z"/>
<path d="M90 7890 c12 -22 25 -26 36 -9 7 12 -12 29 -34 29 -10 0 -10 -5 -2
-20z"/>
<path d="M1230 7890 c0 -5 5 -10 10 -10 6 0 10 5 10 10 0 6 -4 10 -10 10 -5 0
-10 -4 -10 -10z"/>
<path d="M6685 7890 c3 -5 8 -10 11 -10 2 0 4 5 4 10 0 6 -5 10 -11 10 -5 0
-7 -4 -4 -10z"/>
<path d="M320 7881 c0 -5 6 -16 13 -23 8 -7 19 -24 26 -37 7 -12 15 -20 18
-17 3 3 -6 24 -21 46 -26 40 -36 48 -36 31z"/>
<path d="M6483 7840 c1 -24 6 -40 13 -40 18 0 23 49 7 66 -20 20 -21 19 -20
-26z"/>
<path d="M5 7859 c-11 -16 1 -22 67 -31 41 -5 64 -5 66 2 2 5 12 10 23 10 10
0 19 4 19 8 0 19 -15 21 -36 7 -15 -10 -25 -11 -29 -4 -4 6 -13 8 -20 5 -8 -3
-16 0 -19 7 -2 7 -5 4 -5 -5 -1 -22 -41 -25 -41 -3 0 17 -16 20 -25 4z"/>
<path d="M3476 7855 c-8 -8 -19 -15 -25 -15 -6 0 -11 -18 -11 -40 0 -40 0 -40
39 -40 34 0 44 5 65 33 15 19 26 37 26 40 0 8 -55 37 -69 37 -5 0 -16 -7 -25
-15z"/>
<path d="M6071 7854 c0 -11 3 -14 6 -6 3 7 2 16 -1 19 -3 4 -6 -2 -5 -13z"/>
<path d="M6220 7840 c0 -5 5 -10 10 -10 6 0 10 5 10 10 0 6 -4 10 -10 10 -5 0
-10 -4 -10 -10z"/>
<path d="M260 7829 c0 -5 5 -7 10 -4 6 3 10 8 10 11 0 2 -4 4 -10 4 -5 0 -10
-5 -10 -11z"/>
<path d="M410 7830 c0 -21 17 -46 25 -38 4 4 0 17 -9 30 -10 14 -16 17 -16 8z"/>
<path d="M5920 7830 c0 -5 5 -10 10 -10 6 0 10 5 10 10 0 6 -4 10 -10 10 -5 0
-10 -4 -10 -10z"/>
<path d="M220 7821 c0 -6 5 -13 10 -16 6 -3 10 1 10 9 0 9 -4 16 -10 16 -5 0
-10 -4 -10 -9z"/>
<path d="M6035 7820 c-7 -12 12 -12 40 0 18 8 17 9 -7 9 -15 1 -30 -3 -33 -9z"/>
<path d="M0 7809 c0 -13 38 -49 52 -49 13 0 22 30 12 39 -16 15 -64 22 -64 10z"/>
<path d="M5510 7804 c0 -8 5 -12 10 -9 6 4 8 11 5 16 -9 14 -15 11 -15 -7z"/>
<path d="M6125 7813 c-29 -7 -45 -23 -44 -42 1 -13 2 -13 6 2 5 19 29 23 35 5
3 -7 11 -9 24 -3 10 4 25 7 32 6 6 -1 12 5 12 14 0 8 -4 15 -9 15 -5 0 -15 2
-23 4 -7 2 -22 1 -33 -1z"/>
<path d="M5973 7803 c9 -2 23 -2 30 0 6 3 -1 5 -18 5 -16 0 -22 -2 -12 -5z"/>
<path d="M188 7783 c7 -3 16 -2 19 1 4 3 -2 6 -13 5 -11 0 -14 -3 -6 -6z"/>
<path d="M387 7770 c3 -11 9 -17 14 -15 10 7 1 35 -11 35 -5 0 -6 -9 -3 -20z"/>
<path d="M6035 7779 c-4 -6 -13 -8 -20 -5 -11 4 -16 -4 -25 -41 -4 -18 19 -12
25 6 4 14 15 21 30 21 18 0 23 4 19 15 -7 18 -20 19 -29 4z"/>
<path d="M5530 7770 c0 -5 5 -10 11 -10 5 0 7 5 4 10 -3 6 -8 10 -11 10 -2 0
-4 -4 -4 -10z"/>
<path d="M445 7750 c3 -5 8 -10 11 -10 2 0 4 5 4 10 0 6 -5 10 -11 10 -5 0 -7
-4 -4 -10z"/>
<path d="M25 7740 c-4 -6 -11 -8 -16 -5 -5 4 -9 -4 -8 -17 0 -13 3 -17 6 -10
2 6 21 12 41 12 34 0 35 1 16 15 -23 17 -31 18 -39 5z"/>
<path d="M5533 7723 c-18 -7 -16 -23 2 -23 8 0 15 7 15 15 0 8 -1 15 -2 14 -2
0 -9 -3 -15 -6z"/>
<path d="M495 7700 c-3 -5 1 -10 9 -10 8 0 18 5 21 10 3 6 -1 10 -9 10 -8 0
-18 -4 -21 -10z"/>
<path d="M5413 7687 c-13 -5 -23 -18 -23 -27 0 -10 -15 -25 -35 -34 -37 -18
-39 -40 -4 -49 15 -4 19 -2 15 8 -3 8 0 12 7 10 7 -3 17 -1 23 3 10 7 47 92
42 97 -2 1 -13 -2 -25 -8z"/>
<path d="M65 7680 c-4 -6 3 -10 14 -10 25 0 27 6 6 13 -8 4 -17 2 -20 -3z"/>
<path d="M5553 7668 c-11 -13 -26 -33 -32 -45 -11 -21 -10 -23 18 -23 16 0 32
6 34 13 4 9 8 9 15 -2 9 -12 52 -24 52 -15 0 15 -47 94 -55 94 -6 0 -21 -10
-32 -22z"/>
<path d="M5446 7664 c-9 -24 -8 -25 14 -12 23 15 26 28 6 28 -8 0 -17 -7 -20
-16z"/>
<path d="M5505 7670 c-3 -5 -1 -10 4 -10 6 0 11 5 11 10 0 6 -2 10 -4 10 -3 0
-8 -4 -11 -10z"/>
<path d="M60 7641 c0 -11 31 -24 39 -16 3 3 -1 10 -9 15 -19 12 -30 12 -30 1z"/>
<path d="M561 7634 c0 -11 3 -14 6 -6 3 7 2 16 -1 19 -3 4 -6 -2 -5 -13z"/>
<path d="M5465 7639 c-4 -6 -5 -13 -2 -16 7 -7 27 6 27 18 0 12 -17 12 -25 -2z"/>
<path d="M5920 7625 c0 -9 5 -15 11 -13 6 2 11 8 11 13 0 5 -5 11 -11 13 -6 2
-11 -4 -11 -13z"/>
<path d="M0 7620 c0 -5 5 -10 10 -10 6 0 10 5 10 10 0 6 -4 10 -10 10 -5 0
-10 -4 -10 -10z"/>
<path d="M3350 7608 c0 -4 21 -8 48 -7 52 1 48 6 -10 11 -21 2 -38 0 -38 -4z"/>
<path d="M5895 7610 c3 -5 8 -10 11 -10 2 0 4 5 4 10 0 6 -5 10 -11 10 -5 0
-7 -4 -4 -10z"/>
<path d="M391 7574 c0 -11 3 -14 6 -6 3 7 2 16 -1 19 -3 4 -6 -2 -5 -13z"/>
<path d="M5120 7540 c0 -5 7 -10 15 -10 8 0 15 5 15 10 0 6 -7 10 -15 10 -8 0
-15 -4 -15 -10z"/>
<path d="M5618 7486 c-9 -6 -16 -23 -15 -36 0 -14 -3 -33 -7 -42 -5 -10 -4
-18 0 -18 11 0 47 86 42 99 -2 6 -10 4 -20 -3z"/>
<path d="M5657 7438 c-14 -35 -29 -74 -32 -86 -6 -22 -5 -23 17 -17 12 4 24
11 26 15 3 7 11 7 85 -5 39 -6 48 -24 22 -45 -23 -19 -18 -29 23 -48 47 -22
102 -79 102 -108 0 -12 7 -27 15 -34 12 -10 15 -10 15 0 0 10 3 10 15 0 21
-18 18 0 -5 30 -11 14 -20 28 -20 33 0 18 -83 137 -91 131 -9 -5 -13 2 -23 46
-7 33 -93 150 -110 150 -8 0 -25 -28 -39 -62z m153 -148 c0 -5 -4 -10 -10 -10
-5 0 -10 5 -10 10 0 6 5 10 10 10 6 0 10 -4 10 -10z"/>
<path d="M106 7446 c-18 -15 -24 -26 -17 -30 13 -8 60 24 61 42 0 17 -11 14
-44 -12z"/>
<path d="M4800 7420 c0 -5 9 -10 20 -10 11 0 20 5 20 10 0 6 -9 10 -20 10 -11
0 -20 -4 -20 -10z"/>
<path d="M6050 7366 c0 -2 9 -6 20 -9 11 -3 18 -1 14 4 -5 9 -34 13 -34 5z"/>
<path d="M6400 7290 c0 -5 5 -10 11 -10 5 0 7 5 4 10 -3 6 -8 10 -11 10 -2 0
-4 -4 -4 -10z"/>
<path d="M5535 7260 c-3 -5 -1 -10 4 -10 6 0 11 5 11 10 0 6 -2 10 -4 10 -3 0
-8 -4 -11 -10z"/>
<path d="M6939 7258 c-11 -37 0 -62 24 -53 21 9 31 37 15 47 -12 7 -37 11 -39
6z"/>
<path d="M7040 7216 c30 -16 98 -32 87 -20 -10 10 -78 34 -97 33 -9 0 -4 -6
10 -13z"/>
<path d="M4656 7188 c-9 -12 -16 -36 -16 -53 -1 -16 -7 -48 -15 -70 -8 -22
-15 -52 -15 -66 0 -15 -7 -43 -15 -62 -19 -46 -19 -78 1 -185 33 -178 55 -259
91 -335 28 -56 44 -79 61 -84 17 -4 20 -8 11 -14 -17 -10 5 -105 33 -139 19
-24 20 -24 34 -5 17 24 17 27 -1 51 -13 16 -16 17 -24 4 -7 -10 -9 -1 -6 33 3
26 1 47 -4 47 -15 0 -23 51 -10 66 6 8 8 14 5 14 -4 0 -1 7 8 15 8 8 21 15 29
15 17 0 43 28 33 37 -3 3 -14 -1 -23 -9 -30 -25 -50 -28 -68 -8 -9 10 -14 24
-10 29 3 6 1 11 -6 11 -7 0 -5 8 6 20 18 20 18 21 -4 43 -16 15 -25 18 -28 10
-3 -10 -7 -10 -18 0 -20 18 -8 27 22 16 42 -16 56 -5 38 28 -9 15 -20 40 -25
55 -8 25 -11 26 -50 17 -23 -5 -45 -7 -49 -5 -8 6 -6 53 4 78 4 10 -1 24 -13
36 -11 11 -16 25 -12 32 4 7 9 8 11 3 4 -9 89 -26 89 -17 0 2 -18 8 -40 14
-41 11 -51 29 -26 49 19 16 28 71 15 87 -9 11 -6 14 14 14 36 0 43 17 18 44
-18 19 -19 27 -10 59 5 21 7 47 4 57 -4 13 -2 20 8 20 9 0 13 11 13 35 -1 29
-5 35 -23 35 -12 0 -29 -10 -37 -22z m68 -574 c4 -9 4 -19 1 -22 -3 -3 -5 0
-5 7 0 7 -4 9 -10 6 -5 -3 -10 1 -10 9 0 21 16 20 24 0z"/>
<path d="M4995 7181 c-6 -11 9 -23 19 -14 9 9 7 23 -3 23 -6 0 -12 -4 -16 -9z"/>
<path d="M90 7171 c0 -5 5 -13 10 -16 6 -3 10 -2 10 4 0 5 -4 13 -10 16 -5 3
-10 2 -10 -4z"/>
<path d="M6960 7165 c0 -8 5 -15 10 -15 6 0 10 7 10 15 0 8 -4 15 -10 15 -5 0
-10 -7 -10 -15z"/>
<path d="M7155 7163 c27 -27 95 -67 95 -56 0 7 -32 29 -90 61 -25 14 -25 14
-5 -5z"/>
<path d="M6885 7150 c-3 -5 -1 -10 4 -10 6 0 11 5 11 10 0 6 -2 10 -4 10 -3 0
-8 -4 -11 -10z"/>
<path d="M55 7140 c4 -6 11 -8 16 -5 14 9 11 15 -7 15 -8 0 -12 -5 -9 -10z"/>
<path d="M6418 7103 c6 -2 18 -2 25 0 6 3 1 5 -13 5 -14 0 -19 -2 -12 -5z"/>
<path d="M7353 7093 c-15 -5 -17 -23 -4 -23 5 0 11 7 15 15 3 8 4 15 3 14 -1
0 -8 -3 -14 -6z"/>
<path d="M7286 7075 c4 -8 11 -15 16 -15 6 0 5 6 -2 15 -7 8 -14 15 -16 15 -2
0 -1 -7 2 -15z"/>
<path d="M6430 7070 l-45 -7 48 -1 c26 -1 47 3 47 8 0 6 -1 9 -2 8 -2 0 -23
-4 -48 -8z"/>
<path d="M6498 7073 c6 -2 18 -2 25 0 6 3 1 5 -13 5 -14 0 -19 -2 -12 -5z"/>
<path d="M5956 7024 c-18 -25 -18 -26 0 -23 27 4 64 -19 74 -47 5 -13 14 -24
21 -24 6 0 9 3 7 8 -29 67 -56 111 -68 111 -8 0 -23 -11 -34 -25z"/>
<path d="M7301 7041 c-8 -6 -9 -11 -3 -15 6 -3 14 -1 17 5 9 14 2 20 -14 10z"/>
<path d="M7480 6999 c0 -5 5 -7 10 -4 6 3 10 8 10 11 0 2 -4 4 -10 4 -5 0 -10
-5 -10 -11z"/>
<path d="M7440 6944 c0 -8 5 -12 10 -9 6 3 10 10 10 16 0 5 -4 9 -10 9 -5 0
-10 -7 -10 -16z"/>
<path d="M4972 6930 c0 -14 2 -19 5 -12 2 6 2 18 0 25 -3 6 -5 1 -5 -13z"/>
<path d="M6530 6930 c0 -5 5 -10 10 -10 6 0 10 5 10 10 0 6 -4 10 -10 10 -5 0
-10 -4 -10 -10z"/>
<path d="M6053 6905 c-3 -9 -3 -18 0 -21 9 -9 27 6 27 22 0 19 -19 18 -27 -1z"/>
<path d="M6088 6839 c-10 -5 -18 -15 -18 -20 0 -6 -7 -17 -15 -25 -8 -9 -15
-19 -15 -24 0 -15 41 -6 51 11 12 23 46 13 63 -19 8 -15 16 -20 20 -14 7 12
-44 102 -59 102 -5 0 -18 -5 -27 -11z"/>
<path d="M6210 6840 c0 -5 7 -10 15 -10 8 0 15 -6 15 -12 0 -10 21 -12 86 -8
47 3 89 1 93 -3 5 -5 12 -4 16 3 13 20 -5 24 -98 23 -50 -1 -99 3 -109 8 -12
6 -18 6 -18 -1z"/>
<path d="M6535 6820 c-3 -5 1 -10 9 -10 9 0 16 5 16 10 0 6 -4 10 -9 10 -6 0
-13 -4 -16 -10z"/>
<path d="M6245 6787 c-18 -14 -19 -17 -4 -29 9 -7 30 -38 46 -68 17 -34 36
-56 48 -59 19 -3 19 -2 2 17 -18 20 -18 20 3 27 16 5 20 13 17 27 -5 17 -2 19
22 16 25 -4 27 -1 23 21 -3 20 -1 23 7 11 8 -12 14 -12 34 -1 14 7 30 11 35 7
6 -3 22 -1 37 6 26 12 26 12 5 20 -13 5 -75 11 -139 14 -96 5 -120 3 -136 -9z"/>
<path d="M7488 6793 c7 -3 16 -2 19 1 4 3 -2 6 -13 5 -11 0 -14 -3 -6 -6z"/>
<path d="M6568 6763 c7 -3 16 -2 19 1 4 3 -2 6 -13 5 -11 0 -14 -3 -6 -6z"/>
<path d="M6837 6753 c18 -9 36 -13 40 -10 9 10 3 13 -37 20 l-35 6 32 -16z"/>
<path d="M6658 6753 c7 -3 16 -2 19 1 4 3 -2 6 -13 5 -11 0 -14 -3 -6 -6z"/>
<path d="M4910 6742 c0 -5 7 -13 16 -16 10 -4 14 -1 12 6 -5 15 -28 23 -28 10z"/>
<path d="M6125 6740 c3 -5 8 -10 11 -10 2 0 4 5 4 10 0 6 -5 10 -11 10 -5 0
-7 -4 -4 -10z"/>
<path d="M6720 6735 c-14 -16 -8 -18 28 -8 18 4 20 8 10 14 -18 12 -24 11 -38
-6z"/>
<path d="M6187 6700 c6 -32 -12 -43 -20 -12 -4 16 -5 16 -6 0 -1 -11 -6 -15
-16 -12 -10 4 -15 0 -15 -15 0 -16 6 -21 24 -21 14 0 28 -4 31 -10 10 -17 45
-12 45 7 0 27 -23 82 -37 87 -9 4 -11 -3 -6 -24z"/>
<path d="M6560 6720 c0 -5 5 -10 10 -10 6 0 10 5 10 10 0 6 -4 10 -10 10 -5 0
-10 -4 -10 -10z"/>
<path d="M6996 6711 c-3 -5 4 -11 17 -15 33 -9 49 -7 42 4 -4 6 -10 8 -15 5
-5 -3 -11 -1 -15 5 -8 12 -22 13 -29 1z"/>
<path d="M5278 6693 c7 -3 16 -2 19 1 4 3 -2 6 -13 5 -11 0 -14 -3 -6 -6z"/>
<path d="M6908 6693 c7 -3 16 -2 19 1 4 3 -2 6 -13 5 -11 0 -14 -3 -6 -6z"/>
<path d="M5000 6674 c0 -8 5 -12 10 -9 6 3 10 10 10 16 0 5 -4 9 -10 9 -5 0
-10 -7 -10 -16z"/>
<path d="M6950 6680 c20 -13 33 -13 25 0 -3 6 -14 10 -23 10 -15 0 -15 -2 -2
-10z"/>
<path d="M7570 6663 c0 -21 3 -24 9 -14 5 8 7 20 4 28 -8 21 -13 15 -13 -14z"/>
<path d="M6690 6670 c0 -5 5 -10 10 -10 6 0 10 5 10 10 0 6 -4 10 -10 10 -5 0
-10 -4 -10 -10z"/>
<path d="M7110 6665 c0 -9 6 -12 15 -9 8 4 15 10 15 15 0 5 -7 9 -15 9 -8 0
-15 -7 -15 -15z"/>
<path d="M5338 6663 c7 -3 16 -2 19 1 4 3 -2 6 -13 5 -11 0 -14 -3 -6 -6z"/>
<path d="M4961 6644 c0 -11 3 -14 6 -6 3 7 2 16 -1 19 -3 4 -6 -2 -5 -13z"/>
<path d="M7330 6650 c-11 -7 -7 -10 18 -10 20 0 31 4 27 10 -8 13 -26 13 -45
0z"/>
<path d="M7425 6650 c-3 -5 1 -10 10 -10 9 0 13 5 10 10 -3 6 -8 10 -10 10 -2
0 -7 -4 -10 -10z"/>
<path d="M7620 6650 c0 -5 5 -10 11 -10 5 0 7 5 4 10 -3 6 -8 10 -11 10 -2 0
-4 -4 -4 -10z"/>
<path d="M5246 6641 c-4 -5 3 -7 14 -4 23 6 26 13 6 13 -8 0 -17 -4 -20 -9z"/>
<path d="M5608 6643 c7 -3 16 -2 19 1 4 3 -2 6 -13 5 -11 0 -14 -3 -6 -6z"/>
<path d="M7589 6605 c-6 -40 -4 -53 7 -43 3 3 4 23 2 44 l-3 39 -6 -40z"/>
<path d="M5665 6621 c-3 -5 -1 -12 4 -15 5 -3 11 1 15 9 6 16 -9 21 -19 6z"/>
<path d="M6160 6617 c0 -9 -5 -17 -11 -17 -5 0 -7 -5 -4 -10 4 -6 12 -4 22 6
12 11 13 18 4 27 -8 8 -11 7 -11 -6z"/>
<path d="M1017 6613 c-4 -3 -7 -11 -7 -17 0 -6 5 -5 12 2 6 6 9 14 7 17 -3 3
-9 2 -12 -2z"/>
<path d="M5135 6610 l-20 -9 20 0 c11 0 29 4 40 9 l20 9 -20 0 c-11 0 -29 -4
-40 -9z"/>
<path d="M5335 6610 c3 -5 10 -10 16 -10 5 0 9 5 9 10 0 6 -7 10 -16 10 -8 0
-12 -4 -9 -10z"/>
<path d="M6240 6608 c1 -14 34 -58 44 -58 3 0 -4 16 -15 35 -22 37 -29 43 -29
23z"/>
<path d="M6203 6593 c-7 -3 -13 -11 -13 -19 0 -7 -6 -11 -12 -9 -7 3 -28 -9
-45 -25 -37 -33 -42 -46 -14 -30 26 13 29 13 35 -7 4 -15 5 -15 4 2 -1 46 2
53 20 48 10 -2 24 3 31 11 15 18 11 35 -6 29z"/>
<path d="M6345 6578 c4 -13 14 -33 22 -46 11 -17 11 -27 3 -37 -9 -10 -3 -16
25 -25 20 -7 38 -10 41 -7 10 9 -16 57 -31 57 -12 0 -14 6 -9 28 7 24 6 26 -9
13 -15 -11 -18 -10 -27 13 -12 32 -24 35 -15 4z"/>
<path d="M6440 6584 c0 -8 5 -12 10 -9 6 3 10 10 10 16 0 5 -4 9 -10 9 -5 0
-10 -7 -10 -16z"/>
<path d="M7622 6555 c0 -29 5 -44 12 -42 6 2 10 13 9 23 -1 10 3 22 9 25 15 9
2 39 -16 39 -12 0 -15 -11 -14 -45z"/>
<path d="M5018 6573 c7 -3 16 -2 19 1 4 3 -2 6 -13 5 -11 0 -14 -3 -6 -6z"/>
<path d="M4920 6550 c0 -5 5 -10 10 -10 6 0 10 5 10 10 0 6 -4 10 -10 10 -5 0
-10 -4 -10 -10z"/>
<path d="M5332 6472 c-1 -48 -5 -94 -7 -102 -3 -8 0 -22 5 -30 7 -12 10 -8 10
15 0 17 3 69 6 118 4 48 2 87 -2 87 -5 0 -10 -39 -12 -88z"/>
<path d="M6246 6545 c8 -20 -44 -70 -68 -67 -12 2 -18 -3 -18 -17 0 -12 5 -21
10 -21 6 0 10 -4 10 -10 0 -5 -9 -10 -20 -10 -11 0 -23 -7 -26 -15 -7 -18 4
-85 14 -85 9 0 112 201 112 217 0 7 -4 15 -10 18 -6 3 -7 -1 -4 -10z"/>
<path d="M6272 6503 c-11 -16 -32 -57 -46 -93 -15 -36 -29 -70 -32 -75 -2 -6
4 -11 15 -12 15 -1 18 3 14 15 -3 9 -3 14 2 10 4 -4 13 -1 20 6 7 7 28 11 49
8 30 -3 36 -8 36 -28 0 -17 12 -31 40 -49 22 -14 40 -28 40 -31 0 -3 -10 -14
-22 -24 -22 -17 -22 -19 -5 -37 9 -11 17 -30 17 -42 0 -12 4 -19 10 -16 6 3
10 19 10 36 0 20 5 29 16 29 13 0 15 -7 9 -40 -4 -26 -3 -46 5 -55 9 -11 7
-19 -9 -36 -23 -25 -26 -35 -11 -44 6 -3 10 3 10 14 0 26 17 27 25 2 7 -22 84
-37 98 -18 6 8 7 6 3 -5 -3 -12 -1 -15 10 -11 7 3 14 7 14 9 0 16 -44 86 -56
91 -9 3 -14 15 -12 28 1 12 -3 29 -10 38 -8 9 -22 31 -31 49 -44 81 -75 134
-85 143 -6 6 -22 32 -36 59 -64 125 -59 120 -88 79z m205 -375 c-3 -7 -5 -2
-5 12 0 14 2 19 5 13 2 -7 2 -19 0 -25z"/>
<path d="M6800 6520 c0 -5 12 -10 26 -10 14 0 23 4 19 10 -3 6 -15 10 -26 10
-10 0 -19 -4 -19 -10z"/>
<path d="M4800 6489 c0 -11 5 -17 10 -14 6 3 10 13 10 21 0 8 -4 14 -10 14 -5
0 -10 -9 -10 -21z"/>
<path d="M6510 6493 c0 -7 -9 -13 -20 -13 -12 0 -20 -7 -20 -16 0 -12 3 -14
13 -6 6 5 20 11 29 13 13 3 15 8 8 19 -6 10 -10 11 -10 3z"/>
<path d="M7555 6450 c-3 -5 -1 -10 4 -10 6 0 11 5 11 10 0 6 -2 10 -4 10 -3 0
-8 -4 -11 -10z"/>
<path d="M4940 6440 c0 -5 5 -10 10 -10 6 0 10 5 10 10 0 6 -4 10 -10 10 -5 0
-10 -4 -10 -10z"/>
<path d="M6575 6443 c-102 -5 -145 -13 -145 -29 0 -24 61 -124 75 -124 19 0
28 17 13 23 -8 3 -6 6 5 6 9 1 17 3 17 5 0 2 3 12 7 22 5 15 2 16 -32 10 -36
-7 -37 -6 -31 16 3 13 6 26 6 30 0 3 29 9 64 13 57 6 98 19 86 27 -3 2 -32 2
-65 1z"/>
<path d="M5382 6420 c0 -14 2 -19 5 -12 2 6 2 18 0 25 -3 6 -5 1 -5 -13z"/>
<path d="M7594 6416 c-3 -8 -1 -23 5 -33 9 -15 10 -13 11 15 0 34 -7 42 -16
18z"/>
<path d="M886 6401 c-4 -5 -2 -20 3 -33 9 -21 9 -20 8 9 -2 36 -3 38 -11 24z"/>
<path d="M7470 6400 c0 -5 9 -10 20 -10 11 0 20 5 20 10 0 6 -9 10 -20 10 -11
0 -20 -4 -20 -10z"/>
<path d="M7637 6373 c-16 -4 -16 -6 0 -34 11 -17 23 -27 31 -24 10 3 12 0 8
-10 -3 -8 -1 -15 4 -15 14 0 12 24 -2 39 -10 10 -10 15 -1 18 15 5 5 33 -11
32 -6 -1 -19 -3 -29 -6z"/>
<path d="M7716 6334 c-19 -19 -21 -41 -3 -47 8 -3 6 -9 -7 -19 -22 -17 -14
-38 15 -38 17 0 19 7 19 60 0 33 -2 60 -4 60 -3 0 -12 -7 -20 -16z"/>
<path d="M7600 6305 c0 -15 4 -24 10 -20 6 3 10 12 10 20 0 8 -4 17 -10 20 -6
4 -10 -5 -10 -20z"/>
<path d="M5060 6311 c0 -6 5 -13 10 -16 6 -3 10 1 10 9 0 9 -4 16 -10 16 -5 0
-10 -4 -10 -9z"/>
<path d="M5360 6309 c0 -5 5 -7 10 -4 6 3 10 8 10 11 0 2 -4 4 -10 4 -5 0 -10
-5 -10 -11z"/>
<path d="M6176 6284 c-4 -9 -4 -19 -1 -22 3 -3 11 0 17 6 9 9 9 15 1 23 -7 7
-12 5 -17 -7z"/>
<path d="M6605 6293 c-77 -7 -69 -17 20 -24 97 -7 124 -4 56 7 -29 5 -38 10
-29 15 7 5 9 8 3 7 -5 -1 -28 -3 -50 -5z"/>
<path d="M5319 6240 c-3 -35 -8 -54 -16 -53 -6 2 -15 -7 -19 -19 -3 -12 -16
-30 -28 -39 -11 -10 -18 -20 -15 -24 4 -3 20 6 37 20 16 14 34 25 40 25 12 0
20 89 11 122 -4 16 -8 5 -10 -32z"/>
<path d="M7627 6261 c-3 -15 0 -19 14 -18 11 1 18 8 17 16 -5 22 -25 24 -31 2z"/>
<path d="M6753 6253 c9 -2 25 -2 35 0 9 3 1 5 -18 5 -19 0 -27 -2 -17 -5z"/>
<path d="M850 6240 c0 -5 5 -10 10 -10 6 0 10 5 10 10 0 6 -4 10 -10 10 -5 0
-10 -4 -10 -10z"/>
<path d="M6151 6243 c-1 -6 -4 -20 -7 -30 -5 -17 -5 -17 6 0 6 10 9 23 6 30
-3 9 -5 9 -5 0z"/>
<path d="M6535 6240 c-3 -5 -1 -17 4 -27 6 -10 19 -39 31 -65 11 -26 25 -50
30 -53 6 -4 8 -10 6 -14 -3 -4 6 -25 19 -46 13 -22 31 -55 39 -72 18 -39 41
-45 32 -9 -4 15 0 28 9 36 8 7 15 20 15 29 0 11 -6 7 -18 -11 -22 -36 -31 -35
-39 3 -3 17 -12 33 -19 36 -22 8 -16 33 7 33 28 0 19 24 -10 28 -16 3 -21 8
-17 19 4 9 -1 24 -10 34 -19 21 -11 54 11 45 8 -3 17 -1 20 4 4 6 24 10 45 10
66 0 53 17 -18 24 -94 8 -130 8 -137 -4z m75 -90 c0 -5 -4 -10 -10 -10 -5 0
-10 5 -10 10 0 6 5 10 10 10 6 0 10 -4 10 -10z"/>
<path d="M6768 6213 c7 -3 16 -2 19 1 4 3 -2 6 -13 5 -11 0 -14 -3 -6 -6z"/>
<path d="M6828 6203 c7 -3 16 -2 19 1 4 3 -2 6 -13 5 -11 0 -14 -3 -6 -6z"/>
<path d="M7720 6195 c0 -8 5 -15 10 -15 6 0 10 7 10 15 0 8 -4 15 -10 15 -5 0
-10 -7 -10 -15z"/>
<path d="M7650 6190 c0 -5 5 -10 10 -10 6 0 10 5 10 10 0 6 -4 10 -10 10 -5 0
-10 -4 -10 -10z"/>
<path d="M7681 6130 c1 -43 -4 -76 -11 -85 -7 -8 -8 -15 -3 -15 20 0 45 88 38
130 -11 64 -25 46 -24 -30z"/>
<path d="M5377 6139 c16 -33 29 -33 19 -1 -4 11 -13 22 -20 25 -11 4 -11 -1 1
-24z"/>
<path d="M4820 6141 c0 -11 5 -23 10 -26 6 -3 10 -15 10 -25 0 -17 17 -37 25
-28 2 1 -2 24 -8 51 -10 46 -37 66 -37 28z"/>
<path d="M4870 6151 c0 -6 5 -13 10 -16 6 -3 10 1 10 9 0 9 -4 16 -10 16 -5 0
-10 -4 -10 -9z"/>
<path d="M5321 6116 c-9 -11 -7 -15 9 -19 11 -3 19 -11 18 -17 -2 -7 3 -15 10
-17 15 -6 15 7 2 41 -11 29 -22 33 -39 12z"/>
<path d="M6047 6123 c-4 -3 -7 -13 -7 -22 1 -13 3 -13 11 2 11 19 8 33 -4 20z"/>
<path d="M4796 6101 c-4 -5 -3 -17 0 -26 5 -13 8 -14 15 -3 5 7 9 19 9 26 0
14 -16 16 -24 3z"/>
<path d="M4888 6073 c7 -3 16 -2 19 1 4 3 -2 6 -13 5 -11 0 -14 -3 -6 -6z"/>
<path d="M5206 6064 c-10 -25 -1 -27 19 -4 15 17 16 20 3 20 -9 0 -19 -7 -22
-16z"/>
<path d="M5262 6050 c-27 -36 -28 -49 -3 -26 15 14 36 56 27 56 -1 0 -12 -13
-24 -30z"/>
<path d="M6005 6070 c3 -5 -2 -10 -12 -11 -14 0 -12 -3 6 -10 13 -5 26 -8 28
-6 6 7 -9 37 -19 37 -5 0 -6 -4 -3 -10z"/>
<path d="M4898 6053 c-10 -2 -18 -11 -18 -19 0 -22 44 -14 48 9 4 17 1 18 -30
10z"/>
<path d="M4820 6035 c0 -8 -4 -15 -10 -15 -5 0 -10 -5 -10 -11 0 -6 6 -9 13
-6 9 3 19 -11 30 -39 9 -24 13 -44 9 -44 -4 0 -7 -18 -6 -40 1 -39 17 -57 21
-23 0 10 4 44 8 76 7 51 6 59 -14 76 -11 10 -21 23 -21 30 0 6 -4 11 -10 11
-5 0 -10 -7 -10 -15z"/>
<path d="M5165 6039 c-11 -17 1 -21 15 -4 8 9 8 15 2 15 -6 0 -14 -5 -17 -11z"/>
<path d="M5084 6018 c-4 -6 -3 -13 2 -15 5 -2 16 -8 24 -13 13 -9 13 -12 -3
-24 -14 -11 -15 -16 -6 -22 8 -4 15 -2 17 5 3 8 13 22 24 33 18 18 18 19 1 18
-31 -4 -44 0 -38 9 3 5 1 12 -4 15 -5 4 -13 1 -17 -6z"/>
<path d="M5371 6014 c0 -11 3 -14 6 -6 3 7 2 16 -1 19 -3 4 -6 -2 -5 -13z"/>
<path d="M5985 5987 l-30 -28 25 -21 c16 -14 21 -22 13 -25 -7 -3 -13 -18 -13
-35 0 -21 -6 -31 -20 -35 -17 -5 -18 -7 -4 -21 10 -9 13 -23 9 -36 -4 -12 -9
-33 -12 -48 -9 -50 -29 -29 -25 25 2 15 -1 16 -18 7 -24 -13 -26 -30 -5 -30
10 0 15 -10 15 -30 0 -20 5 -30 15 -30 8 0 15 -7 15 -16 0 -13 -7 -15 -37 -9
-38 6 -70 25 -44 25 7 0 9 5 6 11 -4 6 -13 8 -21 5 -17 -7 -19 20 -1 28 12 5
-38 -2 -61 -10 -9 -2 -10 -15 -6 -44 4 -27 3 -40 -5 -40 -6 0 -11 10 -11 23 0
23 -2 23 -45 13 -30 -7 -44 -15 -40 -23 3 -10 -3 -9 -25 2 -17 9 -30 19 -30
23 0 4 -13 13 -30 20 -26 12 -30 19 -30 53 0 35 -3 39 -25 39 -17 0 -25 6 -25
18 -1 15 -3 14 -19 -5 -18 -21 -19 -21 -35 -4 -9 10 -16 25 -16 34 0 11 -6 15
-17 11 -15 -5 -16 -4 -3 5 12 8 12 13 2 23 -6 6 -12 22 -12 35 0 13 -5 23 -11
23 -7 0 -8 -14 -4 -40 5 -32 4 -40 -8 -40 -10 0 -17 -11 -19 -27 -3 -26 -7
-28 -50 -31 -58 -4 -64 -22 -8 -22 36 0 40 -2 40 -25 0 -22 -4 -25 -39 -25
-40 0 -48 9 -55 58 -2 9 -9 18 -16 20 -9 3 -11 -1 -7 -12 4 -10 1 -16 -7 -16
-8 0 -16 9 -19 20 -4 14 -12 19 -29 18 -18 -2 -22 1 -20 17 13 74 13 105 1
105 -8 0 1 14 19 31 27 25 41 49 29 49 -2 0 -25 -20 -52 -45 -46 -43 -47 -46
-29 -60 19 -15 19 -15 0 -30 -16 -12 -17 -19 -8 -42 7 -18 8 -41 3 -63 -5 -19
-9 -27 -10 -17 -1 9 -7 17 -13 17 -9 0 -13 21 -13 74 0 41 -3 77 -6 81 -4 3
-29 8 -55 10 -27 3 -42 2 -34 -2 26 -11 40 -31 40 -57 0 -14 5 -26 10 -26 21
0 9 -29 -26 -65 -34 -35 -35 -38 -18 -56 13 -15 19 -17 26 -7 5 9 8 7 8 -7 0
-12 16 -29 40 -45 22 -13 40 -28 40 -32 0 -4 5 -8 11 -8 6 0 25 -10 42 -22 18
-13 48 -31 67 -42 19 -10 37 -21 40 -25 11 -14 249 -131 266 -131 11 0 33 -12
49 -26 17 -14 42 -33 58 -42 15 -9 27 -20 27 -24 0 -4 5 -8 12 -8 6 0 20 -7
30 -17 18 -17 117 -70 221 -120 31 -15 57 -31 57 -35 0 -4 7 -8 15 -8 9 0 41
-9 72 -20 32 -11 70 -20 85 -20 21 0 28 5 28 20 0 11 5 20 10 20 9 0 14 -15
11 -33 -1 -5 3 -5 10 -2 6 4 25 1 42 -8 50 -23 95 -38 182 -60 44 -11 107 -28
140 -38 33 -10 98 -25 145 -34 47 -8 110 -22 140 -30 30 -8 67 -15 81 -15 30
0 137 -51 163 -77 9 -10 23 -27 31 -38 13 -19 15 -19 30 -4 13 13 18 42 21
135 2 66 6 129 9 142 3 12 1 22 -5 22 -15 0 -12 40 3 40 6 0 4 5 -6 11 -10 6
-34 8 -53 5 -42 -8 -46 9 -6 26 l27 12 -27 4 c-19 2 -28 9 -28 21 0 21 -17 37
-44 42 -13 3 -26 23 -40 62 -17 44 -25 54 -34 45 -9 -9 -12 -9 -12 0 0 21 -19
13 -25 -10 -5 -20 8 -63 40 -140 5 -13 2 -18 -9 -18 -10 0 -16 9 -16 24 0 13
-22 68 -49 122 -26 55 -52 110 -56 124 -4 14 -44 96 -88 183 -84 163 -106 186
-117 122 -5 -23 0 -35 17 -52 13 -12 23 -31 23 -42 0 -11 5 -23 10 -26 7 -4 9
2 4 19 -4 17 -2 26 5 26 7 0 11 -6 9 -12 -3 -20 30 -76 52 -88 17 -9 20 -18
15 -48 -5 -28 -4 -33 4 -22 6 8 11 13 11 10 11 -67 9 -101 -5 -106 -22 -9 -20
-47 3 -40 9 3 29 2 43 -2 20 -5 25 -11 20 -26 -7 -17 -8 -17 -23 -2 -23 23
-45 20 -54 -6 -3 -13 -13 -31 -22 -40 -14 -17 -13 -18 11 -18 14 0 27 -6 30
-12 2 -8 8 -9 13 -4 5 5 4 11 -3 13 -16 6 -17 39 -2 49 17 10 26 -6 33 -58 6
-39 4 -48 -8 -48 -8 0 -17 6 -19 13 -4 9 -8 8 -16 -3 -15 -21 -13 -30 6 -30
16 0 16 -1 0 -17 -15 -16 -18 -15 -37 2 -18 16 -23 17 -30 5 -7 -12 -11 -12
-25 0 -16 13 -15 15 5 32 12 10 31 18 41 18 11 0 19 7 19 16 0 14 -2 14 -22 0
-33 -23 -58 -20 -59 7 -1 21 -2 19 -15 -22 -4 -11 -7 -12 -16 -3 -17 17 -23
15 -36 -13 -15 -33 -34 -32 -30 1 4 33 -21 45 -29 15 -3 -12 -10 -21 -17 -20
-33 4 -56 -3 -56 -16 0 -9 -6 -12 -15 -9 -10 4 -15 20 -15 50 0 34 -3 42 -15
38 -8 -4 -15 -12 -15 -19 0 -17 -24 -36 -50 -38 -11 -1 -37 -16 -57 -34 -21
-19 -46 -33 -61 -33 -20 0 -23 -3 -14 -12 19 -19 14 -28 -17 -28 -25 0 -29 4
-34 38 -4 21 -2 38 3 40 24 8 6 30 -41 51 -27 13 -48 25 -45 28 3 3 -1 21 -9
40 -8 18 -12 39 -9 46 2 8 -2 27 -11 43 -8 16 -15 35 -15 42 0 6 -4 12 -10 12
-5 0 -11 15 -11 33 -1 17 -3 24 -6 15 -5 -22 -22 -23 -29 -3 -4 8 -15 15 -26
15 -18 0 -20 -5 -15 -35 3 -19 15 -44 26 -57 22 -22 29 -68 11 -68 -5 0 -10 8
-10 18 0 10 -4 22 -9 28 -22 24 -60 151 -55 184 3 19 9 80 14 135 5 55 16 140
25 189 8 49 14 92 13 95 -2 3 -16 -7 -33 -22z m-472 -257 c7 -18 19 -30 29
-30 11 0 18 -7 18 -20 0 -11 -4 -20 -10 -20 -5 0 -15 9 -22 20 -7 11 -22 20
-34 20 -29 0 -34 8 -22 36 15 32 27 30 41 -6z m-83 -54 c0 -2 -7 -6 -15 -10
-8 -3 -15 -1 -15 4 0 6 7 10 15 10 8 0 15 -2 15 -4z m400 -11 c0 -8 -2 -15 -4
-15 -2 0 -6 7 -10 15 -3 8 -1 15 4 15 6 0 10 -7 10 -15z m-310 -16 c0 -5 -4
-9 -9 -9 -10 0 -24 -34 -25 -60 -1 -8 -10 -16 -20 -18 -15 -3 -18 0 -13 19 3
13 1 29 -6 37 -9 11 -7 17 6 27 20 14 67 17 67 4z m60 -39 c0 -5 -5 -10 -11
-10 -5 0 -7 5 -4 10 3 6 8 10 11 10 2 0 4 -4 4 -10z m243 -97 c-13 -2 -33 -2
-45 0 -13 2 -3 4 22 4 25 0 35 -2 23 -4z m57 -118 c0 -9 -12 -20 -26 -25 -34
-13 -34 -14 -21 15 13 27 47 34 47 10z m35 -45 c-3 -5 -17 -10 -30 -10 -13 0
-27 5 -30 10 -4 6 8 10 30 10 22 0 34 -4 30 -10z m154 -24 c-9 -19 -15 -23
-20 -14 -5 7 -1 19 9 29 22 22 25 17 11 -15z m827 -13 c-11 -11 -17 4 -9 23 7
18 8 18 11 1 2 -10 1 -21 -2 -24z m-199 -128 c0 -8 -6 -15 -12 -15 -6 0 -12 7
-12 15 0 8 6 15 12 15 6 0 12 -7 12 -15z m-221 -32 c-10 -10 -19 5 -10 18 6
11 8 11 12 0 2 -7 1 -15 -2 -18z m564 -10 c0 -13 -3 -13 -15 -3 -8 7 -15 16
-15 21 0 5 7 6 15 3 8 -4 15 -13 15 -21z m-660 -19 c0 -2 -13 -4 -30 -4 -16 0
-30 4 -30 8 0 5 14 7 30 4 17 -2 30 -6 30 -8z"/>
<path d="M7655 6010 c-3 -5 1 -10 10 -10 9 0 13 5 10 10 -3 6 -8 10 -10 10 -2
0 -7 -4 -10 -10z"/>
<path d="M4938 6003 c7 -3 16 -2 19 1 4 3 -2 6 -13 5 -11 0 -14 -3 -6 -6z"/>
<path d="M4980 6000 c-12 -8 -10 -10 8 -10 13 0 20 4 17 10 -7 12 -6 12 -25 0z"/>
<path d="M6445 5999 c-4 -6 -5 -12 -2 -15 2 -3 7 2 10 11 7 17 1 20 -8 4z"/>
<path d="M7600 5997 c0 -20 -33 -47 -57 -47 -20 0 -33 -18 -33 -43 0 -8 3 -8
9 1 6 11 13 11 36 0 25 -11 29 -10 47 12 13 16 18 33 14 51 -3 17 0 30 7 33 7
2 4 5 -5 5 -10 1 -18 -5 -18 -12z"/>
<path d="M5387 5980 c-6 -21 -9 -23 -18 -10 -8 13 -10 12 -7 -4 3 -21 33 -44
44 -33 4 4 3 21 -3 39 -9 33 -9 33 -16 8z"/>
<path d="M5440 5989 c0 -5 5 -7 10 -4 6 3 10 8 10 11 0 2 -4 4 -10 4 -5 0 -10
-5 -10 -11z"/>
<path d="M6518 5993 c6 -2 18 -2 25 0 6 3 1 5 -13 5 -14 0 -19 -2 -12 -5z"/>
<path d="M6580 5974 c0 -8 -4 -12 -10 -9 -5 3 -10 -1 -10 -10 0 -11 5 -15 14
-12 10 4 13 1 9 -9 -3 -9 1 -14 12 -14 21 0 48 -27 40 -40 -3 -5 -12 -10 -20
-10 -7 0 -15 -7 -19 -15 -3 -8 -12 -15 -21 -15 -8 0 -15 -5 -15 -10 0 -7 6 -7
19 0 33 17 61 12 61 -11 0 -11 -5 -29 -10 -40 -15 -27 2 -24 20 4 21 30 32 59
21 52 -5 -3 -13 0 -17 6 -4 7 -3 9 4 5 21 -13 24 16 3 38 -12 12 -21 30 -21
39 0 9 -5 17 -10 17 -6 0 -15 11 -20 25 -11 28 -30 34 -30 9z"/>
<path d="M4938 5973 c7 -3 16 -2 19 1 4 3 -2 6 -13 5 -11 0 -14 -3 -6 -6z"/>
<path d="M5025 5970 c3 -5 12 -7 20 -3 21 7 19 13 -6 13 -11 0 -18 -4 -14 -10z"/>
<path d="M7640 5955 c-7 -9 -10 -18 -7 -21 7 -8 47 14 47 26 0 15 -26 12 -40
-5z"/>
<path d="M4745 5950 c3 -5 8 -10 11 -10 2 0 4 5 4 10 0 6 -5 10 -11 10 -5 0
-7 -4 -4 -10z"/>
<path d="M4960 5950 c0 -5 5 -10 11 -10 5 0 7 5 4 10 -3 6 -8 10 -11 10 -2 0
-4 -4 -4 -10z"/>
<path d="M6760 5950 c0 -5 5 -10 10 -10 6 0 10 5 10 10 0 6 -4 10 -10 10 -5 0
-10 -4 -10 -10z"/>
<path d="M6463 5943 c-18 -7 -16 -23 2 -23 8 0 15 7 15 15 0 8 -1 15 -2 14 -2
0 -9 -3 -15 -6z"/>
<path d="M6710 5938 c0 -9 -6 -18 -12 -21 -7 -2 -1 -4 15 -4 24 0 26 2 15 16
-7 9 -14 18 -15 20 -2 2 -3 -3 -3 -11z"/>
<path d="M6035 5919 c-8 -26 -21 -104 -36 -224 -13 -107 -12 -93 -10 -132 1
-31 2 -32 26 -21 13 6 29 24 35 41 13 38 14 33 -11 55 -24 23 -24 35 -5 172 7
46 13 130 10 130 -1 0 -6 -9 -9 -21z"/>
<path d="M4896 5904 c-9 -24 -7 -73 4 -94 5 -10 24 -23 41 -29 27 -9 30 -8 25
5 -3 9 -6 22 -6 30 0 9 -4 13 -9 10 -12 -8 -34 21 -27 33 8 13 -3 61 -14 61
-4 0 -11 -7 -14 -16z"/>
<path d="M7609 5904 c-5 -6 -24 -15 -42 -18 l-32 -7 34 -15 c31 -13 35 -13 47
3 12 16 13 16 14 -10 0 -25 -3 -27 -26 -21 -24 6 -25 5 -12 -15 21 -34 36 -25
53 31 8 28 15 55 15 59 0 12 -40 6 -51 -7z"/>
<path d="M5511 5884 c0 -11 3 -14 6 -6 3 7 2 16 -1 19 -3 4 -6 -2 -5 -13z"/>
<path d="M6718 5893 c-10 -3 -18 -9 -18 -14 0 -13 21 -49 43 -71 9 -10 17 -32
17 -48 0 -17 6 -33 13 -36 7 -2 22 -25 32 -49 23 -51 37 -60 70 -42 l23 12
-29 28 c-16 15 -30 23 -34 17 -3 -5 -1 -10 6 -10 7 0 10 -3 7 -6 -14 -13 -48
19 -54 51 -3 19 -10 35 -15 35 -5 0 -12 18 -15 40 -4 22 -10 40 -15 40 -5 0
-6 7 -2 16 3 8 12 13 19 10 8 -3 14 -1 14 4 0 6 1 13 3 16 3 8 -41 12 -65 7z"/>
<path d="M4810 5881 c0 -5 5 -13 10 -16 6 -3 10 -2 10 4 0 5 -4 13 -10 16 -5
3 -10 2 -10 -4z"/>
<path d="M4952 5865 c0 -16 2 -22 5 -12 2 9 2 23 0 30 -3 6 -5 -1 -5 -18z"/>
<path d="M5370 5881 c0 -6 5 -13 10 -16 6 -3 10 1 10 9 0 9 -4 16 -10 16 -5 0
-10 -4 -10 -9z"/>
<path d="M5460 5875 c0 -9 5 -15 11 -13 6 2 11 8 11 13 0 5 -5 11 -11 13 -6 2
-11 -4 -11 -13z"/>
<path d="M5200 5854 c0 -14 39 -36 51 -29 5 4 7 11 3 16 -3 5 -10 7 -15 3 -5
-3 -16 0 -24 6 -8 7 -15 8 -15 4z"/>
<path d="M3610 5830 c0 -5 7 -10 15 -10 7 0 19 -8 25 -17 11 -17 11 -17 6 0
-3 10 -6 23 -6 28 0 5 -9 9 -20 9 -11 0 -20 -4 -20 -10z"/>
<path d="M3679 5788 c-1 -7 -1 -33 1 -57 1 -29 -2 -41 -9 -37 -6 4 -11 14 -11
22 0 8 -7 14 -15 14 -18 0 -20 -21 -3 -38 9 -9 8 -12 -5 -12 -9 0 -21 8 -26
18 -9 15 -10 14 -11 -6 0 -14 -4 -20 -11 -17 -5 4 -58 1 -115 -6 -74 -8 -108
-9 -112 -2 -4 6 -25 12 -47 14 -31 2 -48 11 -77 42 l-37 39 -3 -29 -3 -28 -27
28 c-25 27 -29 28 -63 17 -43 -14 -65 -8 -65 20 0 16 -6 20 -36 20 -51 0 -97
-25 -112 -60 -12 -26 -19 -30 -53 -30 -21 0 -39 5 -39 10 0 6 18 10 40 10 22
0 40 5 40 10 0 6 -18 10 -40 10 -22 0 -40 -4 -40 -8 0 -5 -18 -14 -40 -21 -35
-10 -40 -16 -40 -41 0 -28 -2 -30 -39 -30 -22 0 -43 -4 -46 -10 -3 -5 2 -10
11 -10 30 0 8 -11 -32 -16 -21 -3 -40 -6 -41 -8 -11 -10 66 -75 92 -78 l30 -3
-27 -26 c-16 -15 -28 -31 -28 -38 0 -6 -17 -11 -37 -12 l-38 0 33 -16 c17 -9
32 -19 32 -23 0 -4 -15 -14 -32 -23 l-33 -16 38 0 c36 -1 37 -2 37 -41 0 -22
4 -40 8 -40 14 0 36 -74 23 -78 -15 -5 -14 -23 1 -19 6 1 14 -6 16 -15 3 -14
-3 -18 -27 -18 -31 0 -51 -17 -33 -29 6 -4 -8 -25 -33 -52 l-44 -47 -4 37 c-3
34 -4 33 -5 -9 -4 -79 -23 -117 -35 -70 -10 39 -114 15 -110 -26 1 -10 0 -13
-3 -6 -8 17 -31 15 -42 -5 -8 -13 -22 -16 -61 -14 l-51 2 0 -36 c0 -25 4 -35
16 -35 13 0 15 -6 9 -27 -3 -16 -11 -29 -16 -31 -5 -2 -9 -10 -9 -18 0 -8 -4
-14 -10 -14 -5 0 -10 -11 -10 -25 0 -14 5 -25 10 -25 6 0 10 7 10 15 0 8 6 15
14 15 8 0 16 7 20 15 3 8 15 15 26 15 11 0 20 -7 20 -15 0 -9 -9 -15 -25 -15
-14 0 -25 -5 -25 -10 0 -18 30 -70 40 -70 6 0 10 -7 10 -15 0 -8 5 -15 10 -15
6 0 10 5 10 11 0 5 5 7 11 3 8 -5 8 -9 -1 -14 -7 -4 -10 -13 -6 -19 7 -10 -27
-51 -43 -51 -5 0 -11 -18 -15 -41 -4 -22 -13 -51 -22 -64 -19 -30 -10 -97 14
-93 23 4 35 -51 17 -79 -8 -12 -15 -36 -15 -53 0 -17 -9 -39 -20 -50 -24 -24
-25 -30 -4 -30 8 0 13 -4 10 -9 -3 -5 5 -30 19 -57 l25 -48 -26 -27 c-22 -22
-23 -28 -11 -40 7 -8 12 -19 10 -26 -4 -12 -43 -5 -43 8 0 5 -5 9 -11 9 -5 0
-7 -5 -3 -11 10 -17 -58 0 -76 18 -11 12 -12 17 -2 20 25 9 12 33 -17 33 -31
0 -49 14 -31 25 12 7 4 25 -11 25 -5 0 -9 -9 -9 -20 0 -11 -4 -20 -10 -20 -5
0 -7 -7 -4 -15 4 -9 19 -15 38 -15 22 0 27 -3 17 -9 -8 -5 -12 -18 -8 -30 5
-22 -7 -29 -18 -11 -4 6 -11 7 -17 4 -5 -4 -23 3 -39 15 -16 12 -33 20 -38 17
-4 -3 -23 6 -41 19 -19 14 -38 25 -42 25 -5 0 -27 9 -48 19 -22 11 -40 18 -40
16 0 -8 101 -73 150 -97 120 -58 192 -88 211 -88 11 0 36 -8 57 -19 38 -18
300 -85 382 -97 25 -3 55 -12 67 -20 15 -9 30 -11 54 -4 34 10 47 22 92 81 15
20 47 50 70 65 23 16 44 31 47 34 14 15 64 50 71 50 5 0 9 -15 9 -34 0 -26 -5
-36 -19 -41 -34 -10 -36 -41 -15 -236 l6 -66 -31 -14 c-17 -8 -31 -18 -31 -22
0 -5 -4 -5 -10 -2 -5 3 -10 -2 -10 -12 0 -10 -7 -28 -15 -41 -15 -20 -15 -21
2 -16 17 5 17 4 -1 -10 -12 -9 -29 -13 -47 -9 -20 4 -29 1 -29 -7 0 -7 8 -10
20 -7 11 3 20 1 20 -4 0 -5 -18 -9 -40 -9 -29 0 -40 4 -40 15 0 22 -37 55 -60
55 -11 0 -20 7 -20 15 0 8 -6 15 -13 15 -22 0 -28 -12 -14 -28 9 -13 9 -14 0
-8 -8 4 -13 2 -13 -8 0 -8 5 -18 10 -21 6 -3 10 -1 10 4 0 6 5 11 11 11 6 0 9
-7 5 -15 -3 -9 0 -15 10 -15 8 0 17 -7 20 -15 4 -8 16 -15 28 -15 31 0 55 -21
58 -50 2 -19 -2 -26 -19 -28 -18 -3 -23 -11 -26 -45 l-4 -42 -1 43 c-3 57 -20
54 -24 -4 -3 -41 -7 -49 -36 -65 -19 -9 -41 -24 -51 -33 -10 -9 -28 -16 -40
-16 -12 0 -33 -8 -47 -17 l-26 -16 24 -13 c12 -7 30 -13 39 -14 21 0 62 -75
54 -100 -3 -11 -13 -20 -21 -20 -8 0 -14 -6 -14 -14 0 -8 -9 -18 -20 -21 -11
-3 -20 -11 -20 -16 0 -5 -18 -9 -40 -9 -36 0 -40 -2 -31 -17 8 -14 2 -24 -25
-49 -52 -49 -105 -50 -233 -8 -57 19 -110 34 -117 34 -8 0 -14 4 -14 10 0 5
-18 14 -39 20 -46 12 -133 58 -144 77 -4 7 -15 13 -22 13 -8 0 -15 6 -15 13 0
8 -18 20 -40 27 -22 7 -40 19 -40 26 0 17 -55 25 -197 31 -78 3 -123 1 -123
-6 0 -5 19 -12 43 -14 23 -2 -1 -4 -53 -4 -52 -1 -89 1 -82 4 6 2 12 13 12 24
0 17 -8 19 -80 19 -65 0 -80 3 -80 15 0 14 -3 14 -27 1 -16 -7 -47 -17 -71
-21 -23 -4 -49 -13 -56 -21 -21 -21 -86 -19 -86 3 0 15 -1 15 -18 0 -10 -10
-35 -17 -54 -17 -20 0 -48 -6 -63 -14 -15 -8 -62 -17 -106 -21 -43 -4 -79 -12
-79 -17 0 -6 -7 -8 -15 -4 -8 3 -15 2 -15 -2 0 -10 -14 -12 -120 -18 -47 -3
-88 -10 -91 -16 -4 -6 -22 -12 -40 -14 -19 -2 -35 -9 -37 -14 -2 -6 -13 -10
-23 -10 -11 0 -46 -12 -77 -27 -37 -18 -57 -22 -60 -15 -2 7 -14 12 -26 12
-13 0 -26 3 -30 7 -11 11 -98 31 -112 26 -19 -7 -56 17 -50 33 3 8 -1 14 -9
14 -13 0 -15 -190 -15 -1520 l0 -1520 4150 0 4150 0 0 1958 c0 1885 -1 1960
-18 1975 -10 10 -24 17 -30 17 -24 0 -92 32 -86 41 3 5 -20 9 -50 9 -30 0 -58
5 -61 10 -3 6 -15 10 -25 10 -10 0 -23 6 -27 13 -9 14 -60 40 -83 43 -8 0 -30
2 -47 3 -20 0 -33 6 -33 14 0 8 -18 22 -40 32 -22 10 -40 22 -40 27 0 4 -13 8
-30 8 -29 0 -122 38 -128 53 -2 4 -14 7 -26 7 -12 0 -32 9 -43 19 -13 13 -38
21 -67 22 -25 2 -46 6 -46 9 0 12 -53 35 -72 32 -10 -2 -18 2 -18 7 0 6 -11
11 -25 11 -14 0 -25 6 -25 14 0 7 -31 27 -69 45 -37 17 -81 42 -96 56 -16 13
-33 23 -39 22 -6 -1 -10 4 -9 11 2 6 -4 12 -13 12 -8 0 -13 4 -9 9 3 5 -9 20
-27 32 -18 13 -34 27 -36 31 -2 4 -13 8 -24 8 -10 0 -34 11 -51 24 -18 13 -44
26 -59 30 -16 3 -28 11 -28 16 0 6 -22 10 -50 10 -36 0 -50 4 -50 14 0 8 -11
17 -25 20 -13 3 -29 15 -35 26 -6 11 -15 20 -20 20 -14 0 -79 72 -80 88 0 6
-8 12 -18 12 -30 0 -136 38 -140 49 -2 6 -29 11 -60 11 -34 1 -65 7 -76 15
-11 8 -39 15 -63 15 -25 0 -43 5 -43 11 0 8 -17 10 -52 6 -40 -3 -62 0 -90 14
-21 11 -48 19 -61 19 -14 0 -30 6 -36 14 -7 8 -27 17 -44 21 -89 17 -134 28
-149 36 -10 5 -33 9 -52 9 -19 0 -37 4 -40 9 -3 4 -30 16 -61 25 -35 12 -55
23 -55 33 0 13 -9 15 -45 11 -25 -3 -42 -2 -39 3 3 5 -11 7 -31 5 -30 -4 -38
-1 -42 14 -3 11 -18 21 -39 25 -22 4 -39 14 -45 28 -11 24 -79 63 -79 46 0
-13 -36 -6 -94 21 -23 10 -78 21 -125 24 -47 4 -111 15 -143 26 -31 10 -89 22
-128 26 -38 3 -70 11 -70 15 0 5 -15 9 -34 9 -19 0 -38 5 -41 10 -3 6 -24 10
-46 10 -21 0 -39 -4 -39 -10 0 -5 18 -10 40 -10 22 0 40 -4 40 -10 0 -5 18
-10 40 -10 33 0 40 -3 40 -20 0 -18 -7 -20 -79 -20 -44 0 -83 5 -86 10 -3 6
-18 10 -32 10 -20 0 -24 4 -20 20 5 18 0 20 -49 20 -64 0 -73 -17 -11 -22 23
-2 -31 -3 -121 -3 l-164 0 5 25 c3 14 12 49 20 79 23 78 32 161 18 161 -6 0
-11 -9 -11 -19 0 -32 -79 -39 -81 -7 0 6 -2 23 -3 38 -2 28 -26 65 -26 40 0
-7 -16 -12 -40 -12 -36 0 -40 -2 -40 -25 0 -22 -4 -25 -34 -25 -19 0 -41 -3
-50 -6 -13 -5 -16 1 -16 30 0 20 5 36 10 36 6 0 10 7 10 15 0 8 -4 15 -10 15
-5 0 -10 7 -10 15 0 8 -9 15 -20 15 -11 0 -20 -7 -20 -15 0 -8 7 -15 15 -15
27 0 16 -18 -14 -22 -37 -5 -71 25 -45 40 13 7 10 11 -15 22 -29 12 -30 14
-14 26 10 7 13 14 7 14 -7 0 -11 7 -10 16 0 9 -5 19 -11 21 -7 3 -14 -1 -14
-9z m-2 -140 c-3 -7 -5 -2 -5 12 0 14 2 19 5 13 2 -7 2 -19 0 -25z m-877 -38
c0 -5 -10 -10 -22 -10 -12 0 -30 -7 -40 -17 -17 -15 -18 -15 -18 10 0 25 3 27
40 27 22 0 40 -4 40 -10z m-483 -726 c-3 -3 -12 -4 -19 -1 -8 3 -5 6 6 6 11 1
17 -2 13 -5z m83 -39 c0 -9 -9 -15 -21 -15 -18 0 -19 2 -9 15 7 8 16 15 21 15
5 0 9 -7 9 -15z m4270 -215 c-19 -13 -30 -13 -30 0 0 6 10 10 23 10 18 0 19
-2 7 -10z m-4350 -640 c0 -5 -4 -10 -10 -10 -5 0 -10 5 -10 10 0 6 5 10 10 10
6 0 10 -4 10 -10z"/>
<path d="M7553 5783 c-31 -4 -47 -23 -20 -23 7 -1 4 -6 -7 -15 -10 -7 -15 -19
-11 -25 5 -7 11 -8 19 -1 6 5 18 6 25 2 9 -6 10 -11 2 -15 -6 -4 -8 -18 -5
-32 4 -15 -2 -39 -15 -65 -12 -23 -20 -43 -17 -46 8 -8 56 106 56 135 0 18 6
32 16 36 17 6 16 48 -1 51 -5 1 -25 0 -42 -2z"/>
<path d="M6355 5770 c-3 -5 -1 -10 4 -10 6 0 11 5 11 10 0 6 -2 10 -4 10 -3 0
-8 -4 -11 -10z"/>
<path d="M3615 5750 c3 -5 8 -10 11 -10 2 0 4 5 4 10 0 6 -5 10 -11 10 -5 0
-7 -4 -4 -10z"/>
<path d="M3867 5749 c-23 -13 -22 -29 2 -29 32 0 50 -11 44 -26 -12 -31 24
-12 40 21 20 43 21 45 4 45 -8 0 -19 -10 -25 -22 -6 -13 -11 -18 -11 -11 -1
19 -34 33 -54 22z"/>
<path d="M6590 5750 c0 -5 5 -10 10 -10 6 0 10 5 10 10 0 6 -4 10 -10 10 -5 0
-10 -4 -10 -10z"/>
<path d="M2600 5720 c-23 -7 -24 -8 -3 -9 12 -1 27 -9 32 -18 6 -10 11 -12 11
-5 0 7 15 12 38 13 l37 1 -30 13 c-34 16 -49 17 -85 5z"/>
<path d="M6510 5720 c0 -5 5 -10 10 -10 6 0 10 5 10 10 0 6 -4 10 -10 10 -5 0
-10 -4 -10 -10z"/>
<path d="M5630 5705 c-14 -16 -10 -18 14 -9 9 3 16 10 16 15 0 14 -16 11 -30
-6z"/>
<path d="M5720 5695 c0 -8 9 -15 20 -15 11 0 20 7 20 15 0 8 -9 15 -20 15 -11
0 -20 -7 -20 -15z"/>
<path d="M6625 5680 c-3 -5 -1 -10 4 -10 6 0 11 5 11 10 0 6 -2 10 -4 10 -3 0
-8 -4 -11 -10z"/>
<path d="M730 5644 c0 -8 5 -12 10 -9 6 4 8 11 5 16 -9 14 -15 11 -15 -7z"/>
<path d="M6560 5649 c0 -5 5 -7 10 -4 6 3 10 8 10 11 0 2 -4 4 -10 4 -5 0 -10
-5 -10 -11z"/>
<path d="M6607 5643 c-4 -3 -7 -16 -7 -27 0 -19 1 -19 17 -3 12 11 14 20 7 27
-6 6 -13 7 -17 3z"/>
<path d="M6850 5598 c0 -20 30 -101 43 -117 6 -7 19 -30 29 -50 l18 -36 -5 34
c-3 18 -5 49 -5 67 0 28 -5 36 -25 44 -31 12 -32 35 -2 45 61 21 63 23 27 24
-20 1 -42 -5 -49 -11 -11 -10 -13 -10 -7 0 4 7 1 12 -8 12 -9 0 -16 -6 -16
-12z"/>
<path d="M6350 5554 c0 -8 5 -12 10 -9 6 4 8 11 5 16 -9 14 -15 11 -15 -7z"/>
<path d="M6530 5535 c0 -8 2 -15 4 -15 2 0 6 7 10 15 3 8 1 15 -4 15 -6 0 -10
-7 -10 -15z"/>
<path d="M2552 5510 c0 -14 2 -19 5 -12 2 6 2 18 0 25 -3 6 -5 1 -5 -13z"/>
<path d="M7450 5451 c-14 -13 -19 -21 -12 -17 17 10 15 -9 -3 -28 -9 -8 -22
-13 -30 -10 -13 5 -42 -33 -32 -43 10 -10 77 52 93 85 20 42 16 45 -16 13z"/>
<path d="M6160 5450 c0 -5 5 -10 11 -10 5 0 7 5 4 10 -3 6 -8 10 -11 10 -2 0
-4 -4 -4 -10z"/>
<path d="M6465 5450 c-3 -5 -1 -10 4 -10 6 0 11 5 11 10 0 6 -2 10 -4 10 -3 0
-8 -4 -11 -10z"/>
<path d="M6795 5439 c-4 -6 -5 -12 -2 -15 2 -3 7 2 10 11 7 17 1 20 -8 4z"/>
<path d="M6437 5393 c-15 -15 -5 -25 18 -19 23 6 25 3 26 -26 l2 -33 4 30 c6
35 -29 69 -50 48z"/>
<path d="M2551 5380 c-7 -37 -5 -118 2 -111 4 4 6 35 4 67 -2 32 -4 52 -6 44z"/>
<path d="M6940 5376 c0 -8 5 -18 10 -21 6 -3 10 1 10 9 0 8 -4 18 -10 21 -5 3
-10 -1 -10 -9z"/>
<path d="M6160 5290 c0 -5 5 -10 11 -10 5 0 7 5 4 10 -3 6 -8 10 -11 10 -2 0
-4 -4 -4 -10z"/>
<path d="M6514 5277 c-3 -9 -3 -25 1 -34 6 -16 8 -16 18 5 7 16 7 26 -1 34 -8
8 -13 7 -18 -5z"/>
<path d="M2151 4714 c0 -11 3 -14 6 -6 3 7 2 16 -1 19 -3 4 -6 -2 -5 -13z"/>
<path d="M2100 4709 c0 -5 5 -7 10 -4 6 3 10 8 10 11 0 2 -4 4 -10 4 -5 0 -10
-5 -10 -11z"/>
<path d="M1380 4514 c0 -14 27 -50 33 -44 3 3 -3 16 -13 30 -11 14 -20 20 -20
14z"/>
<path d="M1457 4420 c3 -11 9 -17 15 -14 5 3 4 12 -3 20 -16 19 -18 18 -12 -6z"/>
<path d="M1542 4328 c5 -15 28 -23 28 -10 0 5 -7 13 -16 16 -10 4 -14 1 -12
-6z"/>
<path d="M2050 4180 c0 -24 15 -27 24 -4 9 22 8 24 -9 24 -8 0 -15 -9 -15 -20z"/>
<path d="M7927 4193 c-18 -17 -5 -33 28 -33 39 0 46 14 16 30 -23 12 -35 13
-44 3z"/>
<path d="M2051 4124 c0 -11 3 -14 6 -6 3 7 2 16 -1 19 -3 4 -6 -2 -5 -13z"/>
<path d="M8080 4090 c0 -5 5 -10 11 -10 5 0 7 5 4 10 -3 6 -8 10 -11 10 -2 0
-4 -4 -4 -10z"/>
<path d="M2995 3920 c-3 -5 1 -10 9 -10 9 0 16 5 16 10 0 6 -4 10 -9 10 -6 0
-13 -4 -16 -10z"/>
<path d="M2932 3868 c-14 -14 -16 -28 -2 -28 5 0 14 9 20 20 12 22 1 27 -18 8z"/>
<path d="M2625 3110 c3 -5 8 -10 11 -10 2 0 4 5 4 10 0 6 -5 10 -11 10 -5 0
-7 -4 -4 -10z"/>
</g>
</svg>
